<svg width="12" height="12" viewBox="0 0 12 12" fill="none" xmlns="http://www.w3.org/2000/svg">
<path d="M7.06127 6.00087L11.7801 1.28202C12.0733 0.989096 12.0733 0.513809 11.7801 0.220882C11.4869 -0.0722948 11.0122 -0.0722948 10.719 0.220882L6.00012 4.93973L1.28102 0.220882C0.987847 -0.0722948 0.51306 -0.0722948 0.219883 0.220882C-0.0732943 0.513809 -0.0732943 0.989096 0.219883 1.28202L4.93898 6.00087L0.219883 10.7197C-0.0732943 11.0127 -0.0732943 11.4879 0.219883 11.7809C0.366471 11.9272 0.558587 12.0005 0.750453 12.0005C0.942319 12.0005 1.13444 11.9272 1.28102 11.7806L6.00012 7.06177L10.719 11.7806C10.8656 11.9272 11.0577 12.0005 11.2495 12.0005C11.4414 12.0005 11.6335 11.9272 11.7801 11.7806C12.0733 11.4877 12.0733 11.0124 11.7801 10.7195L7.06127 6.00087Z" fill="white"/>
</svg>
