<svg width="204" height="220" viewBox="0 0 204 220" fill="none" xmlns="http://www.w3.org/2000/svg">
<g clip-path="url(#clip0)">
<path d="M144.122 28.6164H181.814C181.814 28.6164 178.484 23.3113 168.778 24.1035C159.514 24.8406 159.032 21.4961 154.332 21.095C149.631 20.6938 145.692 23.8077 144.122 28.6164Z" fill="#E0E0E0"/>
<path d="M45.5983 115.774C45.5983 115.774 41.8204 117.559 47.3181 124.459C52.8158 131.358 56.3931 134.668 56.3931 134.668C56.3931 134.668 57.4307 136.297 55.8198 136.769C54.2089 137.24 50.4711 137.165 50.0125 139.03C49.5539 140.895 51.3368 142.54 54.679 143.663C58.0212 144.786 65.2272 147.564 65.875 147.815C66.5228 148.066 67.2337 148.793 66.1903 149.264C65.147 149.735 57.0523 151.475 58.2275 154.78C59.4027 158.084 69.3032 159.954 70.381 160.18C71.4587 160.406 71.7626 160.752 71.7568 161.253C71.7511 161.755 68.9707 162.116 66.6891 162.692C64.4074 163.269 61.885 164.287 62.7449 166.147C63.6049 168.007 69.8306 171.382 83.572 170.911L89.9296 170.324L92.6298 165.234C97.6631 154.038 96.0694 147.785 94.3496 146.466C92.6298 145.147 90.6921 146.897 89.3162 148.587C87.9404 150.277 86.639 152.458 86.1002 152.298C85.5613 152.137 85.2747 151.771 85.3893 150.793C85.504 149.816 86.748 141.041 83.5606 138.98C80.3731 136.919 75.8385 143.036 74.9614 143.738C74.0843 144.44 73.5512 143.613 73.4996 143.006C73.448 142.4 72.8403 135.525 72.697 132.391C72.5537 129.257 71.4702 127.257 69.2573 127.011C67.0445 126.765 65.9438 129.884 64.9062 131.062C63.8686 132.241 62.4526 130.852 62.4526 130.852C62.4526 130.852 60.0506 126.805 54.4267 119.996C48.8029 113.187 45.5238 115.829 45.5238 115.829" fill="#EBEBEB"/>
<path d="M90.4571 171.592C86.341 166.578 79.1922 157.553 73.0066 149.836C66.8209 142.119 61.2143 135.144 57.1268 130.11C55.0802 127.602 53.4235 125.567 52.2769 124.153L50.9584 122.533L50.6202 122.107L50.5112 121.961L50.6374 122.097L50.9871 122.513L52.34 124.113C53.4865 125.507 55.2064 127.527 57.2415 130.039C61.3576 135.054 66.9872 142.023 73.1671 149.735C79.347 157.447 86.4843 166.473 90.5775 171.522" fill="#E0E0E0"/>
<path d="M55.2295 139.311C55.3846 139.31 55.5391 139.328 55.6881 139.366C55.9805 139.411 56.399 139.486 56.9149 139.582C57.9525 139.782 59.38 140.083 60.9278 140.449L64.9408 141.387L66.1561 141.662C66.3069 141.689 66.4547 141.728 66.5975 141.778C66.4428 141.779 66.2885 141.762 66.1389 141.728C65.8465 141.683 65.4223 141.607 64.9064 141.502C63.8687 141.296 62.4528 140.976 60.8934 140.615L56.8805 139.702L55.6652 139.431C55.5161 139.403 55.3703 139.362 55.2295 139.311Z" fill="#E0E0E0"/>
<path d="M66.9758 141.372C66.9242 141.372 67.5147 138.769 68.2943 135.575C69.074 132.381 69.7504 129.804 69.8078 129.814C69.8651 129.824 69.2689 132.421 68.4892 135.61C67.7096 138.799 67.0331 141.402 66.9758 141.372Z" fill="#E0E0E0"/>
<path d="M75.8613 153.596C75.916 153.467 75.9851 153.343 76.0677 153.225L76.6754 152.223C77.1856 151.39 77.8907 150.217 78.6073 148.938C79.3239 147.66 79.9431 146.431 80.373 145.579C80.5794 145.172 80.7514 144.827 80.889 144.551C80.943 144.421 81.0122 144.297 81.0954 144.18C81.0706 144.317 81.0243 144.45 80.9578 144.576C80.8603 144.827 80.7055 145.188 80.5049 145.624C80.1036 146.506 79.5131 147.71 78.785 149.013C78.057 150.317 77.3404 151.465 76.7958 152.283C76.5263 152.694 76.297 153.02 76.1365 153.245C75.976 153.471 75.8785 153.606 75.8613 153.596Z" fill="#E0E0E0"/>
<path d="M64.7803 153.777C64.9235 153.75 65.0694 153.735 65.216 153.732L66.3969 153.672C67.4001 153.626 68.7817 153.581 70.3066 153.541C71.8316 153.501 73.2132 153.471 74.2164 153.456H75.3973C75.5432 153.447 75.6897 153.456 75.833 153.481C75.6917 153.508 75.5477 153.523 75.4031 153.526L74.2164 153.586C73.2189 153.626 71.8373 153.677 70.3124 153.717C68.7875 153.757 67.4059 153.787 66.4026 153.797H65.216C65.0703 153.805 64.9242 153.798 64.7803 153.777Z" fill="#E0E0E0"/>
<path d="M71.0405 165.44C71.2296 165.408 71.4213 165.39 71.6138 165.385L73.133 165.305C74.4114 165.245 76.1828 165.169 78.1377 165.099C80.0925 165.029 81.864 164.979 83.1424 164.949H84.6615C84.8523 164.934 85.0441 164.934 85.2348 164.949C85.0466 164.985 84.8544 165.004 84.6615 165.004L83.1424 165.084C81.864 165.149 80.0925 165.22 78.1377 165.29C76.1828 165.36 74.4114 165.415 73.133 165.445L71.6138 165.47C71.422 165.477 71.23 165.467 71.0405 165.44Z" fill="#E0E0E0"/>
<path d="M84.8447 164.863C84.908 164.69 84.9886 164.523 85.0855 164.362L85.8078 163.083C86.3811 162.01 87.241 160.516 88.1009 158.846C88.9609 157.176 89.7061 155.652 90.2335 154.544L90.8527 153.23C90.9207 153.065 91.0051 152.906 91.1049 152.754C91.061 152.925 91.0016 153.093 90.9272 153.255C90.8011 153.571 90.6119 154.028 90.3539 154.589C89.8609 155.712 89.1443 157.247 88.2729 158.921C87.4015 160.596 86.5531 162.075 85.9168 163.143C85.6014 163.675 85.3435 164.101 85.1428 164.392C85.0598 164.557 84.96 164.714 84.8447 164.863Z" fill="#E0E0E0"/>
<path d="M138.16 90.8632C131.338 84.1742 131.991 74.5118 134.577 66.2383C135.007 64.8594 135.23 63.3551 136.296 62.287C137.363 61.219 139.381 60.7828 140.642 61.6402C141.697 62.3723 141.886 63.681 142.276 64.8092C142.794 66.3161 143.787 67.6648 145.142 68.7003C146.031 69.3722 147.206 69.9137 148.341 69.6379C149.889 69.2568 150.502 67.6322 150.869 66.2483C151.546 63.6609 152.226 61.0769 152.91 58.4963C153.188 57.0928 153.724 55.7381 154.498 54.4849C155.346 53.2765 156.791 52.2786 158.373 52.2235C159.956 52.1683 161.635 53.3116 161.584 54.7306C161.489 55.3165 161.349 55.8962 161.165 56.4655C161.075 56.7482 161.081 57.048 161.182 57.3278C161.284 57.6075 161.478 57.8551 161.738 58.04C162.312 58.3308 163.063 58.0701 163.647 57.7642C165.66 56.7012 167.253 55.1317 168.778 53.5572C170.303 51.9828 171.799 50.3531 173.697 49.1397C175.594 47.9263 177.968 47.134 180.267 47.495C182.566 47.8561 184.646 49.5759 184.692 51.6418C184.738 53.7077 182.898 55.4225 181.058 56.7062C178.322 58.6156 175.284 60.1694 172.04 61.3193C171.427 61.4677 170.885 61.784 170.492 62.2219C169.919 63.0693 170.653 64.1975 171.61 64.729C172.699 65.3156 174.006 65.4761 175.205 65.8572C176.403 66.2383 177.612 66.9954 177.807 68.1136C178.071 69.663 176.317 70.8664 174.723 71.5584C171.554 72.9398 168.137 73.8369 164.622 74.2109C163.355 74.3413 162.042 74.4165 160.907 74.938C159.772 75.4595 158.872 76.5827 159.187 77.6758C159.503 78.7689 160.861 79.3856 162.134 79.4408C163.407 79.4959 164.656 79.1399 165.923 78.9995C168.291 78.7338 171.083 79.4458 172.011 81.3763C172.283 82.0305 172.377 82.7308 172.288 83.4223C172.198 84.1139 171.927 84.7779 171.496 85.3626C170.623 86.5223 169.492 87.5164 168.171 88.2859C163.745 91.1957 158.513 93.0232 153.013 93.5809C147.55 94.0824 142.763 93.5107 138.182 90.8682" fill="#F5F5F5"/>
<path d="M139.552 91.6704C140.796 88.4362 139.495 90.0608 142.046 86.1547C144.861 81.9412 147.948 77.8714 151.293 73.9651L153.907 70.8813C154.767 69.8785 155.627 68.8756 156.521 67.9329C158.26 66.1382 160.11 64.429 162.065 62.8134C163.916 61.259 165.739 59.845 167.454 58.5312C169.168 57.2175 170.807 56.0241 172.344 55.0212C174.76 53.3683 177.323 51.8861 180.008 50.5887C180.954 50.1374 181.728 49.8014 182.215 49.5858L182.789 49.3401C182.853 49.3073 182.923 49.282 182.995 49.2649L182.806 49.3602L182.233 49.6309C181.734 49.8666 180.994 50.2126 180.054 50.6789C177.402 52.0036 174.866 53.5004 172.47 55.1566C170.945 56.1946 169.328 57.393 167.62 58.7067C165.911 60.0204 164.094 61.4445 162.254 62.9989C160.312 64.6126 158.473 66.3184 156.745 68.1084C155.85 69.0411 155.025 70.0339 154.142 71.0468C153.259 72.0597 152.422 73.0926 151.534 74.1356C148.196 78.0341 145.109 82.0919 142.287 86.2901C139.73 90.1811 141.014 88.5365 139.753 91.7506" fill="#E0E0E0"/>
<path d="M156.607 67.9282C156.583 67.7214 156.583 67.5131 156.607 67.3064C156.607 66.9052 156.682 66.3286 156.756 65.6166C156.905 64.1925 157.186 62.232 157.507 60.0658C157.828 57.8997 158.081 55.9441 158.207 54.5251C158.27 53.813 158.316 53.2364 158.344 52.8353C158.342 52.6279 158.367 52.4209 158.419 52.2185C158.456 52.424 158.47 52.6324 158.459 52.8403C158.459 53.2414 158.459 53.8431 158.419 54.5351C158.344 55.9642 158.126 57.9348 157.805 60.1009C157.484 62.2671 157.192 64.1625 156.968 65.6166C156.871 66.2835 156.791 66.8451 156.722 67.2964C156.713 67.5102 156.674 67.7224 156.607 67.9282Z" fill="#E0E0E0"/>
<path d="M177.858 68.8157C177.579 68.8144 177.3 68.7875 177.027 68.7355C176.494 68.6653 175.72 68.565 174.763 68.4697C172.854 68.2591 170.177 68.0485 167.264 67.9282C164.352 67.8078 161.658 67.8078 159.732 67.853C158.768 67.853 158.012 67.9031 157.438 67.9232C157.158 67.947 156.876 67.947 156.596 67.9232C156.868 67.864 157.147 67.827 157.427 67.8129C157.966 67.7627 158.745 67.7025 159.72 67.6624C161.652 67.5672 164.306 67.5421 167.27 67.6624C169.786 67.7563 172.294 67.9638 174.786 68.2842C175.743 68.4045 176.506 68.5349 177.039 68.6352C177.317 68.6748 177.592 68.7352 177.858 68.8157Z" fill="#E0E0E0"/>
<path d="M142.39 85.8691C142.346 85.7918 142.317 85.7088 142.304 85.6234L142.132 84.9113C141.983 84.2845 141.8 83.382 141.559 82.2588C141.129 80.0174 140.647 76.9036 140.166 73.4588C139.684 70.014 139.237 66.9052 138.864 64.6588C138.675 63.5657 138.526 62.6531 138.411 61.9962C138.36 61.7054 138.325 61.4948 138.291 61.2692C138.279 61.1843 138.279 61.0983 138.291 61.0134C138.332 61.0913 138.359 61.1742 138.371 61.2591C138.417 61.4547 138.475 61.6904 138.549 61.9762C138.692 62.5979 138.882 63.5055 139.094 64.6287C139.524 66.8701 140.005 69.9839 140.487 73.4287C140.968 76.8735 141.415 79.9823 141.788 82.2287C141.977 83.3218 142.126 84.2344 142.241 84.8913C142.287 85.1821 142.327 85.3927 142.361 85.6133C142.38 85.6976 142.389 85.7832 142.39 85.8691Z" fill="#E0E0E0"/>
<path d="M171.495 83.8482C171.399 83.8754 171.299 83.8906 171.197 83.8933L170.355 83.9585L167.236 84.1791C164.599 84.3696 160.97 84.6805 156.951 84.9914C152.933 85.3023 149.298 85.5881 146.661 85.7285C145.343 85.7987 144.276 85.8438 143.537 85.8639H142.683C142.586 85.8767 142.487 85.8767 142.39 85.8639C142.486 85.843 142.584 85.8296 142.683 85.8238L143.531 85.7586L146.65 85.538C149.281 85.3474 152.915 85.0365 156.928 84.7257C160.941 84.4148 164.582 84.129 167.219 83.9886C168.537 83.9184 169.609 83.8732 170.343 83.8532H171.197C171.296 83.844 171.396 83.8423 171.495 83.8482Z" fill="#E0E0E0"/>
<path d="M194.071 134.883C194.045 134.962 194.012 135.039 193.974 135.114C193.899 135.284 193.796 135.505 193.664 135.786L192.437 138.293L188.034 147.243L188.006 147.299H187.937L174.052 149.304L169.403 149.971L169.191 150.001L169.242 149.816L172.298 139.261L172.367 139.376L164.203 136.187L161.956 135.289L161.383 135.049L161.188 134.959C161.261 134.971 161.332 134.991 161.4 135.019L162.002 135.234L164.295 136.082L172.493 139.191L172.585 139.226L172.556 139.311C171.685 142.37 170.664 145.97 169.546 149.876L169.392 149.725L174.041 149.059L187.931 147.083L187.84 147.143L192.351 138.243C192.896 137.18 193.331 136.342 193.635 135.736L193.985 135.079C194.007 135.011 194.035 134.946 194.071 134.883Z" fill="#E0E0E0"/>
<path d="M171.014 148.547L170.636 149.419L171.243 150.187L170.177 150.142L169.529 150.884L169.248 149.981L168.239 149.675L169.134 149.164L169.157 148.226L169.993 148.813L171.014 148.547Z" fill="#E0E0E0"/>
<path d="M161.48 134.377L161.291 134.813L161.595 135.194L161.067 135.174L160.741 135.54L160.603 135.094L160.099 134.938L160.546 134.683L160.557 134.221L160.976 134.512L161.48 134.377Z" fill="#E0E0E0"/>
<path d="M188.407 146.697L188.218 147.133L188.522 147.514L187.994 147.489L187.668 147.86L187.53 147.414L187.031 147.258L187.473 147.003L187.484 146.536L187.903 146.827L188.407 146.697Z" fill="#E0E0E0"/>
<path d="M172.871 138.875L172.682 139.311L172.986 139.692L172.453 139.672L172.132 140.038L171.994 139.592L171.49 139.436L171.937 139.181L171.948 138.719L172.361 139.01L172.871 138.875Z" fill="#E0E0E0"/>
<path d="M194.719 134.447L194.529 134.883L194.833 135.264L194.3 135.239L193.979 135.61L193.841 135.164L193.337 135.009L193.778 134.753L193.796 134.287L194.208 134.577L194.719 134.447Z" fill="#E0E0E0"/>
<path d="M20.959 170.936H50.97C50.97 170.936 48.3157 166.714 40.5937 167.325C33.2156 167.912 32.8373 165.249 29.088 164.919C25.3388 164.588 22.2087 167.11 20.959 170.936Z" fill="#E0E0E0"/>
<path d="M26.9438 67.587H56.9319C56.9319 67.587 54.2776 63.36 46.5499 63.9767C39.1718 64.5634 38.7992 61.8958 35.0442 61.5699C31.2893 61.2439 28.1707 63.7561 26.9438 67.587Z" fill="#F5F5F5"/>
<path d="M179.343 85.8389H203.994C203.994 85.8389 201.793 82.369 195.487 82.8754C189.427 83.3769 189.118 81.1656 186.039 80.8948C182.961 80.6241 180.369 82.6949 179.343 85.8389Z" fill="#F5F5F5"/>
<path d="M130.133 128.41C131.36 120.327 124.859 113.658 116.742 109.651C108.624 105.645 99.1766 104.296 90.2163 102.075C81.7605 99.9739 73.3506 96.9102 67.0847 91.5149C60.8188 86.1196 57.0695 78.0065 59.3168 70.5754C59.8901 68.7101 60.8933 66.8348 62.7564 65.7567C64.6196 64.6787 67.3828 64.7087 68.7529 66.223C71.6594 69.4522 65.9897 75.2487 69.5383 77.9313C70.3581 78.5481 71.476 78.7737 72.3187 79.3654C74.5659 80.9298 73.8378 83.9735 74.1589 86.4706C74.7837 91.4096 80.0751 94.8393 85.2804 96.84C92.24 99.5226 99.7843 100.781 107.174 102.356C114.563 103.93 122.01 105.941 128.167 109.877C134.324 113.813 139.633 119.906 139.633 126.564C139.633 128.425 139.352 130.711 138.016 132.16C136.68 133.609 134.983 133.905 133.057 133.113C131.131 132.321 129.79 131.107 130.145 128.415" fill="#E8505B"/>
<g opacity="0.8">
<path opacity="0.8" d="M130.133 128.41C131.36 120.327 124.859 113.658 116.742 109.651C108.624 105.645 99.1766 104.296 90.2163 102.075C81.7605 99.9739 73.3506 96.9102 67.0847 91.5149C60.8188 86.1196 57.0695 78.0065 59.3168 70.5754C59.8901 68.7101 60.8933 66.8348 62.7564 65.7567C64.6196 64.6787 67.3828 64.7087 68.7529 66.223C71.6594 69.4522 65.9897 75.2487 69.5383 77.9313C70.3581 78.5481 71.476 78.7737 72.3187 79.3654C74.5659 80.9298 73.8378 83.9735 74.1589 86.4706C74.7837 91.4096 80.0751 94.8393 85.2804 96.84C92.24 99.5226 99.7843 100.781 107.174 102.356C114.563 103.93 122.01 105.941 128.167 109.877C134.324 113.813 139.633 119.906 139.633 126.564C139.633 128.425 139.352 130.711 138.016 132.16C136.68 133.609 134.983 133.905 133.057 133.113C131.131 132.321 129.79 131.107 130.145 128.415" fill="white"/>
</g>
<path d="M90.8354 64.1824C90.5431 61.1738 93.0884 58.5814 95.9949 57.1624C98.9014 55.7434 102.215 55.1968 105.207 53.9583C112.66 50.8796 117.349 43.639 117.699 36.2079C118.049 28.7768 114.363 21.3507 108.601 15.8952C106.262 13.6789 103.384 11.3824 103.35 8.32869C103.31 5.17473 106.79 2.68766 110.31 2.72777C113.83 2.76789 117.028 4.8137 119.121 7.38601C121.213 9.95831 122.366 13.0371 123.495 16.0456C122.687 14.787 124.338 13.2276 125.926 13.358C127.514 13.4883 128.792 14.6516 129.749 15.8099C133.994 20.8433 136.029 27.0434 135.482 33.2796C134.913 39.4019 131.743 45.1158 126.596 49.2951C120.944 53.8079 113.457 55.9239 106.205 57.9246L91.059 62.1014" fill="#E8505B"/>
<g opacity="0.8">
<path opacity="0.8" d="M90.8354 64.1824C90.5431 61.1738 93.0884 58.5814 95.9949 57.1624C98.9014 55.7434 102.215 55.1968 105.207 53.9583C112.66 50.8796 117.349 43.639 117.699 36.2079C118.049 28.7768 114.363 21.3507 108.601 15.8952C106.262 13.6789 103.384 11.3824 103.35 8.32869C103.31 5.17473 106.79 2.68766 110.31 2.72777C113.83 2.76789 117.028 4.8137 119.121 7.38601C121.213 9.95831 122.366 13.0371 123.495 16.0456C122.687 14.787 124.338 13.2276 125.926 13.358C127.514 13.4883 128.792 14.6516 129.749 15.8099C133.994 20.8433 136.029 27.0434 135.482 33.2796C134.913 39.4019 131.743 45.1158 126.596 49.2951C120.944 53.8079 113.457 55.9239 106.205 57.9246L91.059 62.1014" fill="white"/>
</g>
<path d="M86.622 1.26364C85.8766 1.56012 85.2828 2.08715 84.9548 2.74339C84.6267 3.39964 84.5876 4.13879 84.8449 4.81874C85.1542 5.48654 85.7359 6.03013 86.4773 6.34417C87.2187 6.65822 88.067 6.72037 88.8578 6.51857C89.6273 6.27657 90.2678 5.79505 90.657 5.16605C91.0462 4.53705 91.1567 3.80468 90.9675 3.10889C90.7276 2.42274 90.2062 1.83837 89.5035 1.46813C88.8009 1.09789 87.9665 0.967914 87.1609 1.10319" fill="#E8505B"/>
<g opacity="0.8">
<path opacity="0.8" d="M86.622 1.26364C85.8766 1.56012 85.2828 2.08715 84.9548 2.74339C84.6267 3.39964 84.5876 4.13879 84.8449 4.81874C85.1542 5.48654 85.7359 6.03013 86.4773 6.34417C87.2187 6.65822 88.067 6.72037 88.8578 6.51857C89.6273 6.27657 90.2678 5.79505 90.657 5.16605C91.0462 4.53705 91.1567 3.80468 90.9675 3.10889C90.7276 2.42274 90.2062 1.83837 89.5035 1.46813C88.8009 1.09789 87.9665 0.967914 87.1609 1.10319" fill="white"/>
</g>
<path d="M105.294 194.467C103.436 191.103 105.053 186.906 108.011 184.208C110.969 181.511 115.011 179.971 118.903 178.467C127.531 175.143 136.675 171.181 141.06 163.876C142.539 161.414 143.353 158.706 144.213 156.023C145.824 150.823 147.338 144.922 144.099 140.344C143.164 139.03 141.765 137.837 140.017 137.586C138.033 137.275 136.004 138.233 134.772 139.637C133.539 141.041 133.023 142.811 132.771 144.561C132.289 147.89 132.685 151.275 132.284 154.589C131.882 157.904 130.489 161.414 127.342 163.334C123.524 165.661 118.072 165.139 114.363 167.601C111.365 169.607 110.224 173.037 107.879 175.624C105.913 177.785 103.155 179.264 100.633 180.924C98.1106 182.584 95.6627 184.619 94.8085 187.277C94.3574 188.669 94.3747 190.145 94.8583 191.528C95.342 192.912 96.2715 194.144 97.5355 195.077C98.7994 196.01 100.344 196.604 101.985 196.789C103.625 196.973 105.292 196.74 106.784 196.117" fill="#E8505B"/>
<g opacity="0.8">
<path opacity="0.8" d="M105.294 194.467C103.436 191.103 105.053 186.906 108.011 184.208C110.969 181.511 115.011 179.971 118.903 178.467C127.531 175.143 136.675 171.181 141.06 163.876C142.539 161.414 143.353 158.706 144.213 156.023C145.824 150.823 147.338 144.922 144.099 140.344C143.164 139.03 141.765 137.837 140.017 137.586C138.033 137.275 136.004 138.233 134.772 139.637C133.539 141.041 133.023 142.811 132.771 144.561C132.289 147.89 132.685 151.275 132.284 154.589C131.882 157.904 130.489 161.414 127.342 163.334C123.524 165.661 118.072 165.139 114.363 167.601C111.365 169.607 110.224 173.037 107.879 175.624C105.913 177.785 103.155 179.264 100.633 180.924C98.1106 182.584 95.6627 184.619 94.8085 187.277C94.3574 188.669 94.3747 190.145 94.8583 191.528C95.342 192.912 96.2715 194.144 97.5355 195.077C98.7994 196.01 100.344 196.604 101.985 196.789C103.625 196.973 105.292 196.74 106.784 196.117" fill="white"/>
</g>
<path d="M47.8914 24.4946C46.3773 23.4932 45.1522 22.1957 44.314 20.7059C43.4759 19.2162 43.0479 17.5755 43.0644 15.9152C43.1134 14.2571 43.6056 12.632 44.5015 11.1701C45.3975 9.70814 46.6723 8.44999 48.2239 7.49633C49.9839 6.43331 52.0763 5.78647 53.6414 4.51286C55.0344 3.37964 55.9345 1.80516 57.5052 0.852457C58.4958 0.276327 59.6654 -0.0183934 60.8546 0.00852901C62.0437 0.0354514 63.1944 0.382704 64.1495 1.00288C65.0666 1.6462 65.7378 2.51867 66.0738 3.50406C66.4097 4.48945 66.3944 5.54097 66.0298 6.51855C65.3075 8.27855 63.5017 9.56721 62.7507 11.3172C61.9366 13.1975 62.4583 15.3286 62.1774 17.2992C61.9948 18.5332 61.4958 19.7152 60.7176 20.7568C59.9394 21.7985 58.9021 22.6728 57.6833 23.3146C56.4645 23.9563 55.0956 24.3489 53.679 24.4629C52.2623 24.577 50.8346 24.4095 49.5023 23.9731" fill="#E8505B"/>
<g opacity="0.8">
<path opacity="0.8" d="M47.8914 24.4946C46.3773 23.4932 45.1522 22.1957 44.314 20.7059C43.4759 19.2162 43.0479 17.5755 43.0644 15.9152C43.1134 14.2571 43.6056 12.632 44.5015 11.1701C45.3975 9.70814 46.6723 8.44999 48.2239 7.49633C49.9839 6.43331 52.0763 5.78647 53.6414 4.51286C55.0344 3.37964 55.9345 1.80516 57.5052 0.852457C58.4958 0.276327 59.6654 -0.0183934 60.8546 0.00852901C62.0437 0.0354514 63.1944 0.382704 64.1495 1.00288C65.0666 1.6462 65.7378 2.51867 66.0738 3.50406C66.4097 4.48945 66.3944 5.54097 66.0298 6.51855C65.3075 8.27855 63.5017 9.56721 62.7507 11.3172C61.9366 13.1975 62.4583 15.3286 62.1774 17.2992C61.9948 18.5332 61.4958 19.7152 60.7176 20.7568C59.9394 21.7985 58.9021 22.6728 57.6833 23.3146C56.4645 23.9563 55.0956 24.3489 53.679 24.4629C52.2623 24.577 50.8346 24.4095 49.5023 23.9731" fill="white"/>
</g>
<path d="M48.1147 13.7441H55.1603V26.4452C55.1603 26.8015 55.0801 27.1542 54.9242 27.4833C54.7684 27.8124 54.5399 28.1115 54.2519 28.3634C53.9639 28.6153 53.622 28.8151 53.2457 28.9514C52.8695 29.0878 52.4662 29.1579 52.0589 29.1579H51.2162C50.3936 29.1579 49.6048 28.8721 49.0231 28.3634C48.4415 27.8547 48.1147 27.1647 48.1147 26.4452V13.7441Z" fill="#E8505B"/>
<path d="M48.1147 13.7441L51.6347 8.09302L55.1603 13.7441H48.1147Z" fill="#FFBE9D"/>
<path d="M50.2417 10.3294C50.2417 10.3294 51.308 11.7384 53.0335 10.3294L51.6348 8.09302L50.2417 10.3294Z" fill="#E8505B"/>
<path d="M55.2577 25.8285C54.0692 25.9541 52.871 25.996 51.6748 25.9538C50.4785 25.996 49.2804 25.9541 48.0918 25.8285C49.2804 25.7029 50.4785 25.6609 51.6748 25.7031C52.871 25.6609 54.0692 25.7029 55.2577 25.8285Z" fill="#263238"/>
<path d="M55.1836 24.8857C54.0198 25.0083 52.8466 25.0502 51.6752 25.011C50.4999 25.0507 49.3229 25.0088 48.1553 24.8857C49.3189 24.7601 50.4923 24.7181 51.6637 24.7603C52.839 24.7176 54.0162 24.7595 55.1836 24.8857Z" fill="#263238"/>
<path d="M50.1843 13.8342C50.2589 13.8342 50.3219 16.2962 50.3219 19.3499C50.3219 22.4036 50.2589 24.8656 50.1843 24.8656C50.1098 24.8656 50.041 22.4086 50.041 19.3499C50.041 16.2912 50.1041 13.8342 50.1843 13.8342Z" fill="#FAFAFA"/>
<path d="M53.0335 13.8342C53.108 13.8342 53.1768 16.2962 53.1768 19.3499C53.1768 22.4036 53.108 24.8656 53.0335 24.8656C52.9589 24.8656 52.8901 22.4086 52.8901 19.3499C52.8901 16.2912 52.9532 13.8342 53.0335 13.8342Z" fill="#FAFAFA"/>
<path d="M109.324 187.387L141.335 188.586L142.104 190.215L121.127 220L83.2568 219.032L109.324 187.387Z" fill="#263238"/>
<path d="M81.8179 216.129L119.918 218.034L139.822 191.023L125.845 192.016L90.4801 202.911L81.8179 216.129Z" fill="#E0E0E0"/>
<path d="M76.4692 214.108L111.439 214.61C109.983 210.699 113.411 205.183 118.118 203.328C121.231 202.099 127.101 200.505 130.156 199.146C135.889 196.569 141.106 191.68 140.647 187.488L126.281 187.087L107.936 186.465C106.4 190.446 103.121 193.054 98.1333 194.623C93.6732 196.022 88.594 196.022 84.2371 197.632C77.2317 200.199 73.8665 208.512 76.4749 214.143" fill="#EBEBEB"/>
<path d="M76.4691 214.108C76.4691 214.108 76.4347 214.043 76.3831 213.913L76.1424 213.321C76.0118 212.995 75.9121 212.659 75.8443 212.318C75.7268 211.859 75.6464 211.393 75.6035 210.924C75.4861 209.624 75.5787 208.316 75.8787 207.038C76.2826 205.312 77.0442 203.666 78.1259 202.18C78.4279 201.751 78.7631 201.34 79.1291 200.951C79.3183 200.75 79.496 200.54 79.7024 200.344L80.3502 199.773C80.5669 199.573 80.8007 199.389 81.0496 199.221C81.2961 199.051 81.5369 198.86 81.8006 198.695C82.3458 198.359 82.9209 198.062 83.5204 197.807C85.9454 196.739 88.8404 196.303 91.8558 195.801C93.3693 195.561 94.9229 195.3 96.4879 194.934C98.0827 194.548 99.6215 194.003 101.074 193.309C101.833 192.955 102.554 192.542 103.23 192.076C103.927 191.609 104.567 191.08 105.139 190.496C106.327 189.296 107.231 187.902 107.799 186.395V186.314H107.902L123.18 186.816C128.477 186.996 133.969 187.122 139.581 187.287L140.607 187.317H140.733V187.423C140.811 188.385 140.653 189.351 140.269 190.256C140.088 190.701 139.875 191.137 139.633 191.559C139.357 191.966 139.105 192.382 138.796 192.763C137.584 194.279 136.124 195.63 134.462 196.774C132.853 197.896 131.095 198.846 129.228 199.602C127.382 200.324 125.513 200.916 123.684 201.508C121.855 202.099 120.044 202.661 118.324 203.318C117.48 203.64 116.69 204.06 115.974 204.566C115.618 204.813 115.277 205.075 114.953 205.354C114.636 205.633 114.336 205.926 114.053 206.231C112.938 207.411 112.105 208.775 111.605 210.242C111.099 211.632 111.069 213.12 111.519 214.525L111.565 214.66H111.405L85.9912 214.319L78.9342 214.194L77.0825 214.154C76.664 214.154 76.4519 214.154 76.4519 214.154C76.4519 214.154 76.6698 214.154 77.0883 214.154H78.9342L85.9912 214.224L111.439 214.53L111.33 214.665C110.86 213.222 110.884 211.689 111.399 210.257C111.902 208.757 112.748 207.361 113.887 206.156C114.156 205.835 114.494 205.559 114.798 205.258C115.13 204.975 115.478 204.707 115.842 204.456C116.576 203.937 117.386 203.505 118.249 203.172C119.969 202.51 121.792 201.949 123.621 201.352C125.45 200.755 127.313 200.164 129.142 199.447C130.982 198.697 132.715 197.757 134.301 196.649C135.942 195.522 137.384 194.189 138.578 192.693C138.887 192.322 139.151 191.91 139.398 191.514C139.634 191.101 139.843 190.675 140.022 190.241C140.388 189.371 140.54 188.443 140.47 187.518L140.607 187.633L139.581 187.603C133.963 187.438 128.477 187.312 123.174 187.102L107.896 186.6L108.022 186.525C107.44 188.059 106.519 189.479 105.311 190.702C104.725 191.292 104.072 191.828 103.361 192.301C102.673 192.772 101.94 193.192 101.172 193.555C99.6927 194.253 98.1269 194.8 96.5051 195.185C94.9286 195.561 93.3635 195.811 91.8501 196.047C88.8289 196.518 85.9511 196.96 83.5605 198.008C82.9732 198.257 82.4096 198.547 81.8751 198.875C81.6171 199.041 81.3821 199.221 81.1356 199.377C80.8873 199.54 80.6553 199.721 80.4419 199.918L79.7999 200.48C79.5992 200.67 79.4215 200.881 79.2266 201.076C78.8639 201.462 78.5289 201.868 78.2233 202.29C77.1453 203.759 76.38 205.386 75.9646 207.094C75.6582 208.362 75.554 209.661 75.6551 210.954C75.6889 211.421 75.7617 211.886 75.8729 212.343C75.9379 212.683 76.0299 213.018 76.1481 213.346C76.2455 213.602 76.3143 213.798 76.3659 213.938C76.4175 214.078 76.4691 214.108 76.4691 214.108Z" fill="#263238"/>
<path d="M117.756 186.961C117.756 186.961 117.802 186.766 117.837 186.415C117.878 185.921 117.783 185.426 117.561 184.97C117.246 184.293 116.656 183.741 115.905 183.421C115.445 183.233 114.947 183.128 114.441 183.111C113.934 183.095 113.428 183.169 112.955 183.328C112.481 183.486 112.049 183.727 111.684 184.035C111.319 184.343 111.029 184.712 110.831 185.121C110.477 185.786 110.359 186.528 110.493 187.252C110.577 187.74 110.772 188.209 111.066 188.631C111.284 188.927 111.445 189.067 111.427 189.082C111.246 188.979 111.092 188.844 110.974 188.686C110.623 188.27 110.382 187.79 110.269 187.282C110.104 186.521 110.208 185.734 110.567 185.026C110.781 184.585 111.094 184.187 111.488 183.855C111.882 183.523 112.349 183.265 112.86 183.095C113.369 182.927 113.911 182.851 114.454 182.872C114.997 182.892 115.529 183.009 116.019 183.215C116.815 183.569 117.429 184.173 117.739 184.905C117.953 185.383 118.021 185.902 117.934 186.41C117.911 186.548 117.873 186.684 117.819 186.816C117.791 186.921 117.768 186.966 117.756 186.961Z" fill="#263238"/>
<path d="M123.254 186.961C123.254 186.961 123.3 186.766 123.329 186.415C123.373 185.921 123.278 185.425 123.053 184.971C122.741 184.294 122.153 183.742 121.402 183.421C120.943 183.233 120.444 183.127 119.937 183.111C119.43 183.095 118.924 183.169 118.45 183.327C117.976 183.486 117.543 183.727 117.178 184.035C116.812 184.343 116.522 184.712 116.323 185.121C115.975 185.787 115.857 186.528 115.985 187.252C116.067 187.741 116.262 188.21 116.558 188.631C116.776 188.927 116.937 189.067 116.919 189.082C116.739 188.979 116.584 188.844 116.467 188.686C116.111 188.272 115.869 187.792 115.761 187.282C115.591 186.522 115.693 185.734 116.054 185.026C116.267 184.585 116.581 184.187 116.975 183.855C117.369 183.524 117.836 183.265 118.347 183.095C118.856 182.926 119.399 182.85 119.943 182.871C120.487 182.891 121.021 183.009 121.511 183.216C122.308 183.569 122.922 184.172 123.231 184.905C123.444 185.384 123.513 185.901 123.432 186.41C123.407 186.548 123.367 186.684 123.311 186.816C123.254 186.921 123.254 186.966 123.254 186.961Z" fill="#263238"/>
<path d="M127.405 187.212C127.405 187.212 127.439 187.011 127.45 186.66C127.459 186.165 127.331 185.675 127.078 185.231C126.729 184.575 126.117 184.054 125.358 183.767C124.886 183.604 124.382 183.525 123.875 183.534C123.368 183.544 122.869 183.641 122.406 183.822C121.945 184.007 121.531 184.27 121.186 184.595C120.842 184.92 120.575 185.302 120.399 185.718C120.134 186.291 120.04 186.914 120.125 187.528C120.211 188.141 120.472 188.726 120.886 189.228C121.121 189.513 121.293 189.644 121.276 189.659C121.088 189.567 120.926 189.441 120.8 189.288C120.421 188.89 120.148 188.422 120.004 187.919C119.786 187.168 119.838 186.377 120.153 185.652C120.335 185.205 120.619 184.794 120.986 184.443C121.353 184.093 121.797 183.81 122.291 183.612C122.789 183.418 123.327 183.315 123.872 183.309C124.417 183.303 124.958 183.394 125.461 183.577C126.279 183.889 126.933 184.46 127.29 185.176C127.536 185.647 127.638 186.165 127.588 186.68C127.573 186.82 127.542 186.957 127.496 187.092C127.433 187.167 127.416 187.212 127.405 187.212Z" fill="#263238"/>
<path d="M131.853 187.432C131.825 187.432 131.853 187.232 131.853 186.881C131.829 186.386 131.672 185.904 131.395 185.472C130.999 184.829 130.346 184.336 129.56 184.088C129.08 183.946 128.572 183.89 128.066 183.923C127.561 183.956 127.068 184.078 126.617 184.281C126.166 184.484 125.767 184.764 125.442 185.105C125.117 185.445 124.875 185.84 124.728 186.264C124.461 186.959 124.437 187.708 124.659 188.415C124.808 188.894 125.067 189.341 125.421 189.729C125.673 190.005 125.857 190.13 125.84 190.145C125.647 190.06 125.478 189.94 125.341 189.794C124.936 189.416 124.636 188.961 124.464 188.465C124.2 187.726 124.2 186.933 124.464 186.194C124.618 185.739 124.875 185.316 125.221 184.951C125.567 184.586 125.994 184.285 126.476 184.068C126.958 183.852 127.486 183.722 128.027 183.689C128.568 183.655 129.111 183.717 129.623 183.872C130.46 184.142 131.149 184.68 131.55 185.377C131.832 185.838 131.966 186.358 131.939 186.881C131.934 187.021 131.913 187.161 131.876 187.297C131.899 187.387 131.882 187.438 131.853 187.432Z" fill="#263238"/>
<path d="M136.342 187.342C136.342 187.342 136.342 187.142 136.342 186.791C136.306 186.296 136.135 185.816 135.843 185.392C135.426 184.758 134.756 184.282 133.963 184.053C133.478 183.923 132.968 183.88 132.463 183.926C131.959 183.971 131.47 184.105 131.025 184.32C130.581 184.534 130.191 184.824 129.877 185.172C129.563 185.521 129.333 185.921 129.199 186.349C128.993 186.937 128.959 187.56 129.1 188.162C129.241 188.764 129.553 189.325 130.007 189.794C130.271 190.06 130.449 190.18 130.437 190.2C130.241 190.12 130.067 190.004 129.927 189.859C129.502 189.487 129.18 189.034 128.987 188.536C128.698 187.802 128.676 187.009 128.924 186.264C129.065 185.805 129.309 185.375 129.643 184.999C129.977 184.624 130.393 184.311 130.867 184.078C131.345 183.85 131.871 183.709 132.413 183.664C132.955 183.619 133.502 183.671 134.02 183.817C134.867 184.07 135.572 184.595 135.992 185.286C136.29 185.744 136.44 186.264 136.428 186.791C136.428 186.929 136.411 187.067 136.376 187.202C136.371 187.297 136.353 187.342 136.342 187.342Z" fill="#263238"/>
<path d="M140.114 187.784C140.114 187.784 140.114 187.583 140.114 187.232C140.1 186.735 139.95 186.249 139.679 185.813C139.29 185.167 138.643 184.67 137.861 184.414C137.382 184.269 136.875 184.208 136.37 184.235C135.864 184.263 135.369 184.378 134.915 184.575C134.006 184.98 133.318 185.683 133 186.53C132.728 187.223 132.694 187.971 132.902 188.681C133.047 189.161 133.303 189.61 133.653 190C133.9 190.276 134.078 190.406 134.06 190.421C133.871 190.332 133.703 190.211 133.567 190.065C133.171 189.681 132.879 189.223 132.713 188.726C132.46 187.985 132.474 187.194 132.753 186.46C132.913 186.005 133.176 185.583 133.528 185.22C133.88 184.857 134.312 184.56 134.799 184.347C135.286 184.135 135.817 184.011 136.36 183.984C136.903 183.957 137.447 184.026 137.959 184.188C138.792 184.471 139.472 185.019 139.862 185.723C140.135 186.187 140.261 186.706 140.229 187.227C140.222 187.366 140.199 187.504 140.16 187.638C140.155 187.689 140.139 187.738 140.114 187.784Z" fill="#263238"/>
<path d="M156.602 85.0666C155.019 85.0233 153.434 85.0853 151.861 85.2521C147.09 85.7914 142.708 87.8372 139.541 91.0047C136.373 94.1722 134.638 98.2429 134.663 102.451C134.638 105.219 135.043 107.977 135.867 110.649C138.624 119.199 139.472 126.74 139.157 130.41L148.381 134.748C148.381 134.748 152.658 129.382 156.78 127.066C160.901 124.749 174.649 118.542 180.083 112.194C183.592 108.092 184.268 99.658 175.91 92.3072C170.773 87.8186 163.861 85.2267 156.602 85.0666Z" fill="#E8505B"/>
<path d="M134.789 139.747L143.124 143.688L137.695 149.72L132.14 147.509L134.789 139.747Z" fill="#455A64"/>
<path d="M135.19 139.993C135.121 139.968 135.947 137.806 137.042 135.159C138.137 132.511 139.083 130.385 139.157 130.41C139.232 130.435 138.4 132.597 137.305 135.244C136.693 136.857 135.987 138.442 135.19 139.993Z" fill="#263238"/>
<path d="M142.596 143.407C142.533 143.372 143.835 141.331 145.514 138.844C147.194 136.357 148.61 134.367 148.679 134.402C148.748 134.437 147.441 136.483 145.761 138.97C144.081 141.457 142.665 143.407 142.596 143.407Z" fill="#263238"/>
<g opacity="0.4">
<path opacity="0.4" d="M159.371 85.2922C158.998 85.2922 154.406 90.0056 152.377 93.1846C145.555 103.88 145.245 114.29 143.353 126.424C143.078 128.154 142.098 131.895 142.115 131.804C143.124 132.501 146.518 133.875 146.518 133.875C146.518 133.875 149.722 130.496 150.995 128.796C156.086 121.991 161.618 116.686 165.98 109.501C170.343 102.316 174.539 95.9625 170.498 88.6116C170.509 88.6116 163.521 85.0916 159.371 85.2922Z" fill="black"/>
</g>
<path d="M180.123 113.272C180.072 113.2 180.032 113.122 180.003 113.041C179.923 112.886 179.837 112.65 179.682 112.359C179.25 111.519 178.709 110.725 178.071 109.992C177.09 108.858 175.894 107.879 174.534 107.099C172.787 106.09 170.798 105.446 168.721 105.219H168.669L168.635 105.179C167.522 103.839 166.275 102.589 164.909 101.443C163.422 100.18 161.703 99.144 159.824 98.3793C157.939 97.6378 155.881 97.2943 153.816 97.3765C151.933 97.4434 150.11 97.9753 148.559 98.9108L148.473 98.961L148.398 98.9008C146.819 97.6958 144.861 96.9355 142.78 96.7196C141.163 96.5608 139.525 96.743 138.005 97.2511C137.02 97.5818 136.097 98.0381 135.265 98.605C134.972 98.8005 134.76 98.961 134.617 99.0713C134.552 99.1339 134.479 99.1894 134.399 99.2368C134.453 99.1669 134.517 99.1029 134.588 99.0462C134.786 98.8698 134.995 98.7025 135.213 98.5448C136.262 97.7861 137.474 97.218 138.777 96.8736C140.08 96.5292 141.449 96.4155 142.803 96.5391C144.925 96.7488 146.924 97.5163 148.536 98.7404H148.381C149.967 97.7676 151.84 97.2141 153.776 97.1458C155.884 97.0491 157.989 97.3929 159.915 98.1487C161.823 98.9265 163.567 99.9791 165.075 101.263C166.446 102.424 167.697 103.689 168.813 105.043L168.727 104.998C170.839 105.235 172.857 105.903 174.62 106.949C175.994 107.745 177.195 108.749 178.168 109.912C178.801 110.66 179.324 111.474 179.728 112.334C179.871 112.63 179.946 112.871 180.014 113.026C180.058 113.105 180.095 113.187 180.123 113.272Z" fill="#263238"/>
<path d="M162.965 123.927C162.829 123.304 162.561 122.708 162.174 122.172C161.722 121.56 161.116 121.045 160.403 120.668C159.489 120.173 158.417 119.951 157.347 120.036H157.233V119.936C157.023 118.803 156.502 117.733 155.713 116.817C154.838 115.776 153.646 114.972 152.274 114.495C151.187 114.12 150.02 113.953 148.853 114.005C147.686 114.058 146.546 114.329 145.509 114.801L145.423 114.841L145.354 114.776C144.498 113.987 143.375 113.46 142.15 113.272C141.2 113.107 140.22 113.133 139.283 113.347C138.452 113.548 137.673 113.888 136.99 114.35C136.99 114.35 137.025 114.31 137.111 114.239C137.233 114.138 137.363 114.044 137.5 113.959C138.022 113.632 138.604 113.386 139.22 113.231C140.179 112.985 141.19 112.939 142.173 113.096C143.455 113.281 144.633 113.825 145.532 114.645H145.377C146.445 114.149 147.624 113.862 148.831 113.803C150.039 113.744 151.247 113.915 152.371 114.305C153.701 114.783 154.867 115.553 155.756 116.542C156.645 117.53 157.227 118.703 157.445 119.946L157.307 119.855C158.428 119.774 159.549 120.019 160.495 120.552C161.223 120.946 161.835 121.483 162.283 122.122C162.571 122.527 162.777 122.974 162.891 123.44C162.931 123.601 162.937 123.726 162.954 123.812C162.971 123.897 162.977 123.927 162.965 123.927Z" fill="#263238"/>
<path d="M141.513 145.588C141.513 145.588 141.422 145.488 141.209 145.413C140.891 145.323 140.547 145.332 140.235 145.438C139.996 145.506 139.747 145.545 139.495 145.553C139.34 145.552 139.187 145.524 139.046 145.469C138.904 145.415 138.776 145.336 138.67 145.237C138.228 144.836 138.062 144.235 137.644 143.848C137.548 143.755 137.429 143.681 137.296 143.632C137.163 143.584 137.019 143.562 136.875 143.568C136.58 143.594 136.288 143.644 136.004 143.718C135.721 143.791 135.423 143.805 135.133 143.758C134.878 143.711 134.643 143.606 134.45 143.452C134.159 143.249 133.957 142.964 133.877 142.645C133.835 142.533 133.835 142.411 133.877 142.299C133.877 142.299 133.877 142.419 133.975 142.62C134.08 142.898 134.28 143.141 134.548 143.317C134.723 143.439 134.93 143.522 135.15 143.558C135.406 143.586 135.666 143.565 135.912 143.497C136.213 143.413 136.522 143.354 136.835 143.322C137.02 143.314 137.204 143.341 137.374 143.403C137.545 143.464 137.697 143.558 137.821 143.678C138.303 144.179 138.458 144.736 138.83 145.077C138.911 145.157 139.01 145.223 139.12 145.269C139.23 145.316 139.35 145.343 139.472 145.348C139.703 145.347 139.932 145.32 140.155 145.267C140.507 145.168 140.89 145.187 141.227 145.323C141.49 145.448 141.525 145.588 141.513 145.588Z" fill="#263238"/>
<path d="M142.471 144.41C141.073 143.899 139.714 143.311 138.4 142.65C137.044 142.064 135.73 141.404 134.468 140.675C135.865 141.186 137.225 141.774 138.538 142.435C139.895 143.021 141.208 143.681 142.471 144.41Z" fill="#263238"/>
<path d="M140.814 146.255C140.814 146.255 140.699 146.306 140.493 146.391C140.395 146.431 140.275 146.491 140.12 146.546C139.937 146.605 139.741 146.627 139.547 146.611C139.044 146.588 138.563 146.426 138.171 146.15C137.942 145.979 137.763 145.762 137.649 145.518C137.552 145.283 137.415 145.061 137.242 144.861C137.036 144.709 136.795 144.597 136.535 144.532C136.275 144.467 136.002 144.451 135.735 144.485C135.247 144.534 134.752 144.491 134.284 144.36C133.963 144.254 133.7 144.044 133.551 143.773C133.459 143.578 133.493 143.458 133.505 143.458C133.516 143.458 133.539 143.568 133.648 143.728C133.815 143.951 134.064 144.117 134.353 144.2C134.802 144.292 135.267 144.311 135.723 144.255C136.029 144.214 136.342 144.232 136.639 144.309C136.936 144.385 137.211 144.517 137.443 144.696C137.636 144.914 137.788 145.158 137.89 145.418C137.985 145.631 138.137 145.822 138.332 145.975C138.678 146.231 139.103 146.391 139.553 146.436C139.859 146.46 140.168 146.413 140.447 146.301C140.563 146.257 140.689 146.242 140.814 146.255Z" fill="#263238"/>
<path d="M77.8738 99.4275L92.2975 97.5572L85.4182 89.033L81.7205 89.2235C80.5009 89.2863 79.3252 89.6445 78.325 90.2582C77.3247 90.8718 76.5393 91.7167 76.0566 92.6984C75.5331 93.761 75.3873 94.9369 75.6381 96.073L77.8738 99.4275Z" fill="#E8505B"/>
<path opacity="0.4" d="M77.8738 99.4275L92.2975 97.5572L85.4182 89.033L81.7205 89.2235C80.5009 89.2863 79.3252 89.6445 78.325 90.2582C77.3247 90.8718 76.5393 91.7167 76.0566 92.6984C75.5331 93.761 75.3873 94.9369 75.6381 96.073L77.8738 99.4275Z" fill="black"/>
<path d="M139.793 113.397C139.942 113.758 140.108 114.189 140.269 114.701C140.412 115.139 140.464 115.595 140.424 116.05C140.405 116.616 140.297 117.178 140.103 117.719C139.862 118.196 140.412 118.677 140.882 118.436C141.352 118.196 142.029 116.897 141.994 115.217C141.96 113.537 143.909 115.548 144.637 116.27C145.365 116.992 147.739 119.133 148.174 119.113C148.805 119.083 148.885 118.486 148.14 117.779C147.395 117.072 145.325 114.821 145.778 114.5C146.231 114.179 149.877 117.91 149.877 117.91C149.877 117.91 150.507 118.812 151.023 118.461C151.998 117.825 147.784 114.124 147.372 113.778C147.085 113.537 147.567 113.176 147.859 113.447C148.151 113.718 151.402 117.233 152.399 116.596C153.162 116.095 148.96 113.522 148.753 112.464C148.547 111.406 151.711 114.711 152.416 114.214C152.68 114.029 152.852 113.863 150.697 112.209C149.659 111.401 145.726 108.995 145.726 108.995L133.9 79.3604L124.762 83.9384L139.793 113.397Z" fill="#FFBE9D"/>
<path d="M69.3663 57.358L56.1408 43.5588C55.9796 43.0833 55.7645 42.623 55.4987 42.1849C55.1933 41.6336 54.7573 41.1456 54.2196 40.7531C53.6819 40.3606 53.0548 40.0726 52.3801 39.9084C51.5374 39.748 50.58 39.8232 49.9208 39.3418C49.6284 39.1262 49.4335 38.8404 49.1239 38.6198C48.8144 38.3991 48.3041 38.3791 48.1035 38.6699C48.0521 38.7806 48.0305 38.9001 48.0404 39.0192C48.0503 39.1384 48.0916 39.2539 48.1608 39.3569C48.6551 40.3804 49.4454 41.2738 50.4539 41.9492C49.2156 42.2752 47.4442 42.7766 47.4442 42.7766C47.4442 42.7766 44.6409 40.114 43.2135 40.114C41.786 40.114 44.36 42.4807 44.36 42.4807C44.36 42.4807 42.0669 40.6255 41.3618 41.147C40.6566 41.6684 42.4682 43.0473 42.4682 43.0473C41.9201 42.7334 41.2703 42.5839 40.6165 42.6211C39.9687 42.7164 39.4126 43.3833 39.7623 43.8697C39.9127 44.0452 40.1094 44.1863 40.3356 44.2809L43.8555 45.9957C44.4191 46.3227 45.0637 46.5273 45.7359 46.5924C47.5245 46.6426 48.8774 45.6748 50.666 45.7149C50.666 45.7149 60.6353 64.0721 61.6443 65.0198C62.6532 65.9675 84.5753 67.2561 84.5753 67.2561L97.2504 57.704L69.3663 57.358Z" fill="#FFBE9D"/>
<path d="M109.071 157.357L122.578 162.502L115.343 177.228C113.778 176.536 114.288 167.701 114.288 167.701L105.482 164.693L109.071 157.357Z" fill="#E8505B"/>
<g opacity="0.6">
<path opacity="0.6" d="M115.802 162.878C115.921 162.754 116.088 162.674 116.271 162.652C116.454 162.63 116.64 162.667 116.793 162.757C116.937 162.858 117.031 163.002 117.058 163.161C117.084 163.32 117.041 163.482 116.937 163.615C116.81 163.744 116.632 163.829 116.439 163.851C116.245 163.873 116.049 163.832 115.888 163.735C115.748 163.618 115.667 163.458 115.661 163.29C115.654 163.121 115.723 162.957 115.853 162.832" fill="white"/>
</g>
<path opacity="0.6" d="M122.578 162.502L121.19 162.03L114.775 176.326C114.775 176.326 114.775 177.103 115.349 177.228L122.578 162.502Z" fill="white"/>
<path d="M114.082 167.912C114.168 167.942 114.38 167.596 114.815 167.34C115.251 167.085 115.693 167.024 115.693 166.949C115.693 166.874 115.165 166.799 114.643 167.115C114.122 167.431 114.007 167.897 114.082 167.912Z" fill="#263238"/>
<path d="M114.082 169.732C114.156 169.777 114.449 169.517 114.913 169.406C115.377 169.296 115.784 169.356 115.819 169.286C115.853 169.216 115.406 168.99 114.827 169.141C114.248 169.291 113.984 169.697 114.082 169.732Z" fill="#263238"/>
<path d="M115.744 171.402C115.79 171.342 115.429 171.086 114.89 171.106C114.351 171.126 114.002 171.387 114.059 171.447C114.116 171.507 114.454 171.382 114.896 171.377C115.337 171.372 115.698 171.487 115.744 171.402Z" fill="#263238"/>
<path d="M112.167 167.035C112.259 167.035 112.305 166.664 112.534 166.267C112.763 165.871 113.067 165.611 113.016 165.545C112.964 165.48 112.523 165.676 112.259 166.147C111.995 166.618 112.087 167.05 112.167 167.035Z" fill="#263238"/>
<path d="M110.344 165.936C110.536 165.721 110.659 165.465 110.7 165.194C110.779 164.909 110.815 164.616 110.809 164.322C110.804 164.154 110.787 163.986 110.757 163.82C110.747 163.718 110.718 163.618 110.671 163.525C110.635 163.456 110.573 163.399 110.497 163.364C110.42 163.329 110.332 163.316 110.247 163.329C110.172 163.343 110.102 163.373 110.043 163.416C109.984 163.458 109.938 163.513 109.909 163.575C109.86 163.667 109.827 163.765 109.811 163.865C109.778 164.039 109.765 164.216 109.771 164.392C109.776 164.689 109.834 164.983 109.943 165.264C110.018 165.532 110.184 165.773 110.419 165.956C110.459 165.931 110.287 165.671 110.155 165.209C110.081 164.942 110.048 164.667 110.058 164.392C110.059 164.224 110.078 164.056 110.115 163.891C110.115 163.72 110.207 163.585 110.304 163.575C110.402 163.565 110.356 163.575 110.396 163.63C110.427 163.699 110.448 163.772 110.459 163.845C110.537 164.281 110.537 164.724 110.459 165.159C110.401 165.416 110.362 165.675 110.344 165.936Z" fill="#263238"/>
<path d="M110.505 165.886C110.533 165.886 110.304 165.611 109.788 165.385C109.481 165.256 109.152 165.173 108.814 165.139C108.613 165.122 108.412 165.122 108.212 165.139C108.08 165.137 107.951 165.164 107.835 165.218C107.719 165.273 107.622 165.353 107.552 165.45C107.522 165.516 107.514 165.589 107.53 165.659C107.545 165.729 107.582 165.794 107.638 165.846C107.718 165.92 107.808 165.984 107.908 166.037C108.084 166.135 108.278 166.208 108.481 166.252C108.818 166.327 109.171 166.327 109.507 166.252C110.081 166.132 110.333 165.866 110.304 165.851C110.03 165.936 109.75 166.008 109.467 166.067C109.163 166.103 108.854 166.081 108.561 166.002C108.392 165.954 108.23 165.888 108.08 165.806C107.914 165.716 107.799 165.601 107.845 165.55C107.894 165.5 107.956 165.46 108.025 165.433C108.095 165.406 108.17 165.393 108.246 165.395C108.437 165.379 108.629 165.379 108.819 165.395C109.131 165.414 109.438 165.471 109.731 165.565C110.207 165.726 110.476 165.921 110.505 165.886Z" fill="#263238"/>
<path d="M98.6719 177.589L104.261 187.818L105.981 197.03C106.011 197.187 106.077 197.337 106.176 197.47C106.275 197.604 106.404 197.719 106.556 197.807C106.708 197.895 106.878 197.954 107.058 197.982C107.237 198.01 107.421 198.005 107.598 197.967C107.804 197.926 107.996 197.841 108.156 197.72C108.317 197.6 108.442 197.447 108.521 197.275C109.547 195.054 113.273 186.861 112.82 186.129C112.316 185.286 107.775 174.997 107.775 174.997L98.6719 177.589Z" fill="#E8505B"/>
<path opacity="0.6" d="M107.626 197.967L112.488 185.432L112.711 185.873C112.908 186.251 112.945 186.677 112.815 187.076C112.459 188.139 111.404 191.088 108.584 197.265C108.503 197.442 108.373 197.599 108.206 197.722C108.039 197.844 107.84 197.929 107.626 197.967Z" fill="white"/>
<g opacity="0.6">
<path opacity="0.6" d="M108.349 183.05C108.25 183.2 108.218 183.378 108.261 183.548C108.303 183.717 108.416 183.867 108.578 183.968C108.746 184.059 108.948 184.089 109.141 184.054C109.334 184.019 109.504 183.919 109.616 183.777C109.719 183.617 109.751 183.429 109.705 183.25C109.66 183.07 109.54 182.912 109.37 182.804C109.182 182.727 108.967 182.716 108.77 182.773C108.573 182.83 108.408 182.951 108.309 183.11" fill="white"/>
</g>
<path d="M108.005 192.387C107.555 192.176 107.062 192.041 106.555 191.99C106.044 192.012 105.543 192.116 105.076 192.296C105.076 192.296 105.162 192.136 105.42 191.995C105.766 191.816 106.164 191.727 106.566 191.74C106.977 191.745 107.377 191.858 107.713 192.066C107.931 192.221 108.028 192.367 108.005 192.387Z" fill="#263238"/>
<path d="M107.873 194.101C107.839 194.172 107.3 193.986 106.6 194.071C105.901 194.157 105.454 194.452 105.374 194.392C105.675 194.082 106.097 193.88 106.559 193.826C107.021 193.772 107.489 193.871 107.873 194.101Z" fill="#263238"/>
<path d="M108.658 189.995C108.009 189.896 107.351 189.841 106.692 189.829C106.038 189.901 105.391 190.011 104.754 190.16C105.298 189.774 105.98 189.568 106.681 189.579C107.376 189.507 108.077 189.654 108.658 189.995Z" fill="#263238"/>
<path d="M107.26 186.761C107.26 186.836 106.486 186.856 105.62 187.162C104.755 187.468 104.175 187.914 104.118 187.859C104.442 187.413 104.939 187.084 105.517 186.931C106.057 186.698 106.674 186.637 107.26 186.761Z" fill="#263238"/>
<path d="M105.706 183.722C105.116 183.777 104.537 183.904 103.987 184.098C103.475 184.36 103.008 184.684 102.599 185.061C102.565 185.061 102.628 184.865 102.829 184.619C103.1 184.303 103.454 184.046 103.86 183.872C104.267 183.698 104.715 183.61 105.167 183.617C105.511 183.622 105.712 183.692 105.706 183.722Z" fill="#263238"/>
<path d="M103.711 183.521C103.605 183.409 103.53 183.277 103.493 183.135C103.349 182.761 103.291 182.366 103.321 181.972C103.315 181.681 103.42 181.397 103.619 181.165C103.69 181.096 103.782 181.048 103.885 181.027C103.987 181.005 104.094 181.011 104.193 181.044C104.385 181.125 104.538 181.264 104.622 181.435C104.773 181.794 104.777 182.187 104.633 182.547C104.488 182.908 104.205 183.213 103.831 183.411C103.458 183.6 103.028 183.688 102.597 183.663C102.166 183.638 101.754 183.502 101.412 183.271C101.324 183.212 101.252 183.136 101.202 183.049C101.153 182.962 101.126 182.866 101.125 182.769C101.13 182.672 101.17 182.579 101.239 182.504C101.308 182.428 101.403 182.373 101.51 182.348C101.83 182.292 102.162 182.309 102.473 182.398C102.909 182.499 103.321 182.669 103.688 182.899C103.952 183.06 104.066 183.175 104.055 183.185C103.548 182.918 103 182.715 102.427 182.584C102.152 182.518 101.863 182.509 101.584 182.558C101.526 182.572 101.475 182.601 101.437 182.642C101.399 182.682 101.376 182.732 101.372 182.784C101.381 182.847 101.405 182.907 101.442 182.961C101.478 183.015 101.526 183.062 101.584 183.1C101.886 183.291 102.244 183.402 102.616 183.42C102.988 183.437 103.358 183.361 103.682 183.2C103.997 183.032 104.238 182.775 104.365 182.472C104.492 182.169 104.498 181.837 104.382 181.531C104.326 181.41 104.225 181.309 104.095 181.245C104.039 181.223 103.976 181.218 103.917 181.229C103.857 181.241 103.803 181.269 103.763 181.31C103.599 181.507 103.507 181.743 103.499 181.987C103.467 182.505 103.539 183.024 103.711 183.521Z" fill="#263238"/>
<path d="M117.521 158.606L102.209 149.58L107.277 106.056L92.7731 98.6503L79.5132 95.9626C79.5132 95.9626 73.9754 106.041 71.4874 112.51C66.2476 126.229 62.573 131.148 63.4099 141.091C63.6794 144.24 76.9679 152.122 85.3606 156.49C85.4525 157.365 85.6018 158.236 85.8078 159.097C88.6742 170.434 97.4281 185.517 97.4281 185.517L110.734 180.107L106.44 167.25L110.912 169.532L117.521 158.606ZM84.6097 130.526L86.3983 123.551C86.0199 127.984 85.6759 132.612 85.4294 137.049C84.5535 134.973 84.2625 132.742 84.581 130.546L84.6097 130.526Z" fill="#263238"/>
<path d="M97.4224 185.527C97.3805 185.47 97.3459 185.41 97.3192 185.347C97.2561 185.211 97.1644 185.031 97.044 184.795L96.0179 182.674C95.135 180.829 93.8681 178.161 92.3432 174.827C90.8183 171.492 89.0296 167.541 87.1837 163.078C86.7308 161.965 86.2894 160.812 85.8709 159.629C85.6874 159.027 85.4524 158.43 85.332 157.798C85.2976 157.638 85.2575 157.482 85.2288 157.322L85.1658 156.851C85.1256 156.53 85.0855 156.214 85.0396 155.893C84.8868 154.609 84.7607 153.304 84.6613 151.977C84.6154 151.31 84.5696 150.638 84.5409 149.971C84.5122 149.304 84.4778 148.612 84.5409 147.93C84.7645 142.46 85.2919 137.275 85.7218 132.557C86.1518 127.838 86.5818 123.601 86.92 120.021C87.2582 116.441 87.4933 113.563 87.6137 111.567C87.6825 110.564 87.7226 109.792 87.7512 109.265C87.7512 109.01 87.7512 108.814 87.7914 108.664C87.8315 108.513 87.7914 108.463 87.7914 108.463C87.8001 108.531 87.8001 108.6 87.7914 108.669C87.7914 108.814 87.7914 109.01 87.7914 109.265C87.7914 109.767 87.7627 110.569 87.7054 111.572C87.6079 113.578 87.4073 116.461 87.1321 120.031C86.8569 123.601 86.427 127.853 85.9856 132.567C85.5441 137.28 85.0511 142.475 84.839 147.925C84.7931 148.607 84.839 149.274 84.839 149.931C84.839 150.588 84.9078 151.27 84.9537 151.937C85.0492 153.274 85.1753 154.577 85.332 155.848L85.4524 156.8L85.5155 157.272C85.5441 157.427 85.5843 157.583 85.6187 157.733C85.7276 158.345 85.9626 158.942 86.1403 159.538C86.5531 160.722 86.9945 161.87 87.4417 162.983C89.2418 167.441 91.0246 171.412 92.5152 174.741L96.1039 182.619L97.0784 184.755L97.3307 185.316C97.3716 185.383 97.4024 185.454 97.4224 185.527Z" fill="#455A64"/>
<path d="M87.1894 106.989C87.0596 106.92 86.9418 106.836 86.8397 106.738C86.5677 106.469 86.3487 106.162 86.1919 105.831C85.7431 104.722 85.5238 103.552 85.5441 102.376C85.5275 101.212 85.5906 100.048 85.7333 98.8909C85.7606 98.4078 85.8373 97.9279 85.9626 97.4568C86.0095 97.9373 86.0095 98.4204 85.9626 98.9009C85.911 99.7934 85.825 101.017 85.8537 102.371C85.8446 103.521 86.0379 104.666 86.4269 105.765C86.5607 106.09 86.7439 106.397 86.9716 106.678C87.1378 106.864 87.2009 106.974 87.1894 106.989Z" fill="#455A64"/>
<path d="M81.4624 96.6294C81.6001 97.0236 81.6392 97.4392 81.5771 97.8478C81.5022 98.8452 81.1235 99.8068 80.4804 100.633C79.8372 101.459 78.9531 102.12 77.9196 102.546C77.5054 102.744 77.0484 102.863 76.5781 102.897C76.5781 102.857 77.0826 102.742 77.8279 102.396C78.7978 101.944 79.6276 101.292 80.2458 100.497C80.8639 99.7023 81.2519 98.788 81.3764 97.8328C81.4796 97.0957 81.4051 96.6344 81.4624 96.6294Z" fill="#455A64"/>
<path d="M105.253 121.931C105.261 121.975 105.261 122.019 105.253 122.062C105.253 122.167 105.253 122.292 105.213 122.453C105.173 122.809 105.116 123.305 105.047 123.957C104.881 125.266 104.651 127.126 104.365 129.418C103.792 134.041 102.943 140.399 102.032 147.419C101.711 150.728 101.966 154.06 102.788 157.302C103.149 158.714 103.613 160.104 104.176 161.464C104.692 162.752 105.167 163.971 105.609 165.044C106.469 167.22 107.174 168.99 107.667 170.234C107.896 170.835 108.08 171.307 108.211 171.648L108.343 172.019C108.362 172.061 108.375 172.105 108.383 172.149C108.36 172.098 108.349 172.044 108.349 171.989L108.183 171.628L107.61 170.229C107.099 168.99 106.366 167.22 105.471 165.064C105.018 163.971 104.531 162.777 104.004 161.494C103.428 160.128 102.953 158.731 102.582 157.312C101.74 154.049 101.477 150.692 101.802 147.359C102.697 140.339 103.585 133.966 104.216 129.358C104.537 127.071 104.789 125.216 104.984 123.907C105.081 123.28 105.156 122.784 105.208 122.403L105.276 122.017C105.242 121.977 105.253 121.931 105.253 121.931Z" fill="#455A64"/>
<path d="M79.4844 95.8924L81.8348 90.6475L87.1892 97.6373L80.0462 96.0729" fill="#FFBE9D"/>
<path d="M135.563 80.1175L129.205 67.6471C128.443 65.6414 127.015 65.3305 125.823 64.1672L109.886 56.3049C98.2768 52.143 91.9535 66.0977 91.9535 66.0977L81.3995 87.1575C68.9881 90.7577 77.7764 99.0914 77.7764 99.0914C77.7764 99.0914 74.3999 93.9618 77.7191 92.1066C81.1989 90.1711 85.0513 95.2756 88.7547 100.129C93.1288 105.861 107.335 109.581 107.335 109.581C108.991 108.042 108.527 102.682 109.828 99.8084C110.241 98.8958 120.078 78.9642 120.078 78.9642L123.891 87.0472C123.891 87.0472 128.781 82.0329 131.148 81.2357C132.58 80.7529 134.057 80.3788 135.563 80.1175Z" fill="#E8505B"/>
<path d="M107.334 88.9778C107.189 89.0961 107.025 89.1958 106.847 89.2737C106.386 89.5107 105.903 89.712 105.402 89.8754C103.732 90.4226 101.929 90.585 100.166 90.3471C98.4031 90.1091 96.7398 89.4788 95.3357 88.5165C94.9131 88.2275 94.5199 87.9071 94.1605 87.5588C94.0189 87.4389 93.8973 87.3022 93.7993 87.1527C93.8394 87.1176 94.3726 87.6842 95.4561 88.3761C96.8583 89.2772 98.4885 89.869 100.208 90.1012C101.928 90.3334 103.686 90.1992 105.334 89.7099C106.629 89.3339 107.306 88.9377 107.334 88.9778Z" fill="#263238"/>
<path d="M80.9294 69.1964L90.7611 70.0087L106.492 55.4674L97.2391 55.1917L80.7632 56.6107C81.6334 60.7674 81.6896 65.0232 80.9294 69.1964Z" fill="#E8505B"/>
<path d="M94.5901 61.5398C94.5629 61.6324 94.5224 61.7217 94.4697 61.8055L94.0742 62.5477L92.6181 65.2754C91.3912 67.5769 89.7517 70.7911 88.0319 74.3462C86.312 77.9013 84.6725 81.1305 83.4456 83.442C82.8437 84.6003 82.345 85.533 81.9838 86.1698C81.8175 86.4706 81.68 86.7113 81.571 86.9018C81.5281 86.9913 81.4722 87.0755 81.4048 87.1526C81.4316 87.0589 81.4701 86.9681 81.5194 86.8818C81.6112 86.6862 81.7373 86.4355 81.8863 86.1297C82.2246 85.4477 82.6889 84.5151 83.2622 83.3718L87.751 74.2509C89.5109 70.6908 91.1619 67.4867 92.4346 65.2002C93.0652 64.0569 93.5812 63.1343 93.9767 62.5075L94.4181 61.7855C94.462 61.6969 94.5199 61.6142 94.5901 61.5398Z" fill="#263238"/>
<path d="M124.596 65.7717C124.596 65.8118 124.022 66.0876 123.18 66.7094C122.696 67.0747 122.251 67.4775 121.85 67.9128C121.369 68.4494 120.952 69.0274 120.606 69.6377C120.273 70.2569 120.012 70.9036 119.826 71.5682C119.682 72.1114 119.597 72.6655 119.574 73.2229C119.528 74.1756 119.66 74.7673 119.574 74.7773C119.514 74.6451 119.474 74.507 119.453 74.3661C119.415 74.2008 119.39 74.0332 119.379 73.8647C119.349 73.6467 119.336 73.4273 119.339 73.2079C119.34 72.6368 119.407 72.0673 119.539 71.508C119.714 70.8164 119.976 70.1438 120.319 69.5023C120.677 68.8736 121.113 68.2816 121.62 67.7373C122.038 67.2964 122.509 66.8963 123.025 66.5439C123.219 66.4046 123.424 66.2773 123.638 66.1628C123.792 66.0673 123.955 65.9834 124.126 65.9121C124.272 65.8428 124.431 65.7954 124.596 65.7717Z" fill="#263238"/>
<path d="M127.342 45.7952L118.095 60.878C117.368 62.0643 116.154 62.9657 114.698 63.4011C113.242 63.8364 111.652 63.7734 110.246 63.2247C109.489 62.9251 108.81 62.493 108.251 61.9551C107.693 61.4171 107.266 60.7847 106.997 60.0968C106.728 59.4089 106.624 58.6802 106.69 57.9556C106.756 57.231 106.991 56.5259 107.38 55.8838C108.246 54.4447 108.968 53.2714 108.968 53.2714C108.968 53.2714 104.955 50.9949 106.835 47.2042C108.509 43.8246 114.649 34.2825 115.956 32.2617L123.73 35.3054C124.767 35.7756 125.685 36.423 126.431 37.2092C127.176 37.9954 127.734 38.9045 128.071 39.8826C128.407 40.8607 128.516 41.8879 128.391 42.9035C128.266 43.9191 127.909 44.9024 127.342 45.7952Z" fill="#FFBE9D"/>
<path d="M108.991 53.2112C110.956 54.0198 113.151 54.2991 115.297 54.0135C115.297 54.0135 112.58 56.2097 108.452 54.1839L108.991 53.2112Z" fill="#EB996E"/>
<path d="M111.955 41.1569C111.88 41.296 111.871 41.4552 111.93 41.5999C111.989 41.7446 112.112 41.8629 112.27 41.9291C112.345 41.9656 112.428 41.9885 112.514 41.9964C112.6 42.0043 112.686 41.997 112.769 41.975C112.851 41.953 112.927 41.9168 112.993 41.8684C113.059 41.82 113.114 41.7605 113.153 41.6935C113.225 41.5533 113.232 41.3943 113.173 41.2496C113.115 41.1048 112.994 40.9854 112.838 40.9163C112.762 40.8806 112.678 40.8586 112.593 40.8514C112.507 40.8443 112.421 40.8521 112.338 40.8745C112.256 40.897 112.18 40.9335 112.114 40.982C112.048 41.0304 111.994 41.0899 111.955 41.1569Z" fill="#263238"/>
<path d="M111.989 40.6754C112.029 40.7757 112.649 40.6754 113.308 40.9161C113.967 41.1568 114.311 41.6582 114.42 41.6131C114.529 41.5679 114.454 41.4376 114.311 41.222C114.116 40.9355 113.823 40.7094 113.474 40.5751C113.129 40.4401 112.744 40.4032 112.373 40.4698C112.098 40.53 111.966 40.6152 111.989 40.6754Z" fill="#263238"/>
<path d="M118.146 43.8193C118.075 43.9601 118.068 44.1196 118.128 44.2644C118.188 44.4093 118.309 44.5283 118.467 44.5966C118.543 44.6324 118.626 44.6547 118.711 44.6622C118.797 44.6697 118.883 44.6623 118.965 44.6404C119.047 44.6184 119.124 44.5824 119.19 44.5345C119.256 44.4865 119.31 44.4275 119.35 44.3609C119.422 44.2207 119.429 44.0617 119.371 43.917C119.312 43.7722 119.192 43.6528 119.035 43.5837C118.959 43.5478 118.876 43.5254 118.79 43.5178C118.704 43.5102 118.617 43.5176 118.534 43.5395C118.452 43.5614 118.375 43.5974 118.308 43.6455C118.242 43.6935 118.187 43.7526 118.146 43.8193Z" fill="#263238"/>
<path d="M118.444 43.3331C118.485 43.4334 119.104 43.3331 119.763 43.5738C120.422 43.8145 120.766 44.3109 120.869 44.2708C120.973 44.2307 120.91 44.0953 120.766 43.8797C120.571 43.5932 120.278 43.3671 119.929 43.2328C119.584 43.0978 119.199 43.061 118.829 43.1275C118.553 43.1877 118.422 43.283 118.444 43.3331Z" fill="#263238"/>
<path d="M113.841 46.6876C113.543 46.4536 113.212 46.2547 112.855 46.0959C112.689 46.0157 112.545 45.9204 112.568 45.8101C112.634 45.6516 112.751 45.5137 112.907 45.414L113.984 44.4864C114.933 43.7106 115.813 42.8724 116.616 41.9792C115.589 42.681 114.63 43.4559 113.749 44.2958C113.377 44.6218 113.027 44.9377 112.689 45.2385C112.493 45.3767 112.357 45.5697 112.305 45.7851C112.302 45.8469 112.315 45.9085 112.344 45.9651C112.373 46.0216 112.416 46.0716 112.471 46.111C112.553 46.1698 112.643 46.2187 112.74 46.2564C113.085 46.4393 113.455 46.5841 113.841 46.6876Z" fill="#263238"/>
<path d="M115.584 47.851C115.481 47.8008 115.16 48.4326 114.311 48.6382C113.463 48.8438 112.74 48.4727 112.689 48.558C112.637 48.6432 112.798 48.7485 113.119 48.8839C113.537 49.0523 114.009 49.0878 114.454 48.9842C114.881 48.8819 115.247 48.6394 115.475 48.3073C115.635 48.0515 115.635 47.866 115.584 47.851Z" fill="#263238"/>
<path d="M119.43 40.9964C119.43 41.1769 120.118 41.3624 120.852 41.7485C121.586 42.1346 122.119 42.5659 122.297 42.4656C122.377 42.4154 122.342 42.2249 122.17 41.9642C121.927 41.6452 121.604 41.3794 121.225 41.1869C120.848 40.9896 120.424 40.8728 119.986 40.846C119.648 40.841 119.442 40.9061 119.43 40.9964Z" fill="#263238"/>
<path d="M113.09 39.1112C113.136 39.2867 113.663 39.3268 114.236 39.5374C114.81 39.748 115.205 40.0388 115.383 39.9235C115.463 39.8783 115.457 39.7179 115.32 39.5123C115.123 39.2572 114.845 39.0587 114.519 38.9419C114.194 38.825 113.836 38.7949 113.491 38.8554C113.205 38.9006 113.073 39.0109 113.09 39.1112Z" fill="#263238"/>
<path d="M124.441 48.0564C124.527 48.0564 127.795 48.4525 126.384 50.9897C124.974 53.5269 122.343 51.7669 122.371 51.6917C122.4 51.6165 124.441 48.0564 124.441 48.0564Z" fill="#FFBE9D"/>
<path d="M123.827 51.1051C123.827 51.1051 123.862 51.1602 123.925 51.2304C124.021 51.3246 124.154 51.3837 124.297 51.3959C124.546 51.3755 124.784 51.2967 124.986 51.1678C125.188 51.039 125.346 50.8648 125.444 50.6638C125.57 50.4473 125.64 50.2095 125.65 49.9668C125.668 49.8761 125.66 49.7829 125.627 49.6955C125.594 49.608 125.537 49.529 125.461 49.4654C125.409 49.4288 125.344 49.4088 125.278 49.4088C125.211 49.4088 125.146 49.4288 125.094 49.4654C125.02 49.5206 125.008 49.5807 124.991 49.5757C124.974 49.5707 124.951 49.5055 125.031 49.4102C125.084 49.3541 125.157 49.3152 125.238 49.2999C125.347 49.282 125.46 49.3017 125.553 49.3551C125.66 49.428 125.744 49.5231 125.798 49.6317C125.852 49.7402 125.874 49.8589 125.862 49.9769C125.86 50.2488 125.785 50.5166 125.645 50.7591C125.531 50.9909 125.343 51.1886 125.102 51.3277C124.862 51.4667 124.58 51.541 124.292 51.5413C124.202 51.5295 124.117 51.4993 124.043 51.4531C123.969 51.4069 123.909 51.346 123.867 51.2755C123.776 51.1702 123.787 51.1051 123.827 51.1051Z" fill="#EB996E"/>
<path d="M126.12 48.6381C125.852 48.515 125.551 48.4575 125.248 48.4716C124.945 48.4857 124.653 48.5709 124.401 48.7183C124.017 49.0092 123.764 49.4103 123.386 49.7212C123.211 49.8822 122.98 49.9877 122.729 50.0213C122.477 50.0549 122.221 50.0146 121.999 49.9067C121.868 49.8049 121.771 49.6747 121.717 49.5295C121.662 49.3842 121.653 49.2289 121.689 49.0794C121.764 48.7812 121.904 48.4985 122.102 48.247C122.893 47.1088 123.793 46.0307 124.469 44.8373C125.205 43.665 125.526 42.3284 125.392 40.9964C125.315 40.333 125.035 39.7001 124.581 39.1644C124.127 38.6287 123.516 38.2101 122.813 37.9528C121.861 37.6569 120.812 37.7472 119.843 37.5015C119.269 37.3519 118.742 37.0899 118.301 36.7355C117.86 36.381 117.517 35.9433 117.298 35.4557C117.184 35.2607 117.058 35.0715 116.919 34.889C116.954 34.8239 117.292 34.3124 117.636 34.2121C120.187 33.46 123.65 34.3224 125.765 35.7816C126.844 36.5177 127.726 37.45 128.352 38.5141C128.977 39.5782 129.331 40.7486 129.388 41.9441C129.417 44.2958 127.72 46.8982 126.143 48.6531" fill="#263238"/>
<path d="M126.155 48.3573C126.958 47.1589 128.271 46.2865 129.268 45.2034C130.266 44.1203 130.953 42.596 130.243 41.3474C130.002 40.9212 129.612 40.5652 129.406 40.124C129.25 39.6653 129.156 39.1925 129.125 38.7149C128.993 37.9852 128.676 37.2907 128.195 36.6831C127.715 36.0754 127.084 35.5702 126.35 35.205C125.33 34.7036 124.149 34.503 123.117 34.0316C121.477 33.2745 120.279 31.8805 118.559 31.2838C118.282 31.1679 117.98 31.104 117.673 31.0963C117.366 31.0885 117.061 31.137 116.776 31.2387C116.639 31.2954 116.517 31.377 116.419 31.4783C116.32 31.5795 116.248 31.6979 116.206 31.8256C116.164 31.9533 116.154 32.0873 116.176 32.2188C116.199 32.3502 116.253 32.4759 116.335 32.5875C116.302 32.4716 116.24 32.3634 116.154 32.2707C116.067 32.1779 115.959 32.1029 115.836 32.0508C115.713 31.9986 115.578 31.9708 115.442 31.9691C115.305 31.9674 115.17 31.9919 115.045 32.041C114.802 32.1578 114.603 32.3346 114.473 32.5495C114.344 32.7643 114.29 33.0077 114.317 33.2494C114.385 33.7334 114.601 34.1923 114.942 34.5782C116.003 35.8972 117.569 36.84 119.356 37.2357L123.312 36.965L126.556 39.0659L128.987 42.3954L124.636 47.3445L126.155 48.3573Z" fill="#263238"/>
<path d="M101.395 28.6263C101.234 26.4415 100.405 24.3346 98.9952 22.5258C97.5851 20.717 95.6455 19.2726 93.3791 18.3435C91.1126 17.4144 88.6025 17.0347 86.111 17.244C83.6194 17.4534 81.2379 18.2442 79.2152 19.5337C77.1925 20.8233 75.6028 22.5643 74.6122 24.5748C73.6217 26.5854 73.2666 28.7918 73.5841 30.9634C73.9016 33.135 74.88 35.1922 76.4171 36.92C77.9542 38.6479 79.9936 39.9829 82.3223 40.7858C82.4255 42.2349 82.5459 43.8645 82.5459 43.8645L94.7738 43.1726C94.7738 43.1726 94.7165 41.4427 94.6305 39.8983C96.8343 38.7454 98.6318 37.0832 99.8253 35.0944C101.019 33.1057 101.562 30.8676 101.395 28.6263Z" fill="#E8505B"/>
<path d="M90.3482 43.373V43.2226C90.3482 43.1173 90.3482 42.9668 90.3769 42.7763C90.3769 42.3902 90.4342 41.8136 90.5087 41.0765C90.5833 40.3394 90.675 39.4318 90.8642 38.3939C91.0707 37.2124 91.4106 36.0518 91.8789 34.929C92.1432 34.2739 92.4752 33.6412 92.8706 33.0386C93.0867 32.7083 93.3942 32.4307 93.7649 32.2313C93.9673 32.1331 94.1937 32.0786 94.4251 32.0725C94.6564 32.0664 94.8861 32.1088 95.0949 32.1962C95.3149 32.2889 95.4854 32.4524 95.5707 32.6525C95.6627 32.8555 95.6627 33.0814 95.5707 33.2843C95.3746 33.6688 95.0266 33.9786 94.5904 34.1568C94.115 34.3251 93.6059 34.4082 93.0931 34.4014C92.5803 34.3945 92.0743 34.2977 91.605 34.1168C91.1357 33.9359 90.7127 33.6745 90.3609 33.348C90.0091 33.0216 89.7358 32.6368 89.5571 32.2163C89.345 31.773 89.2795 31.2866 89.3679 30.8123C89.4157 30.5609 89.5619 30.3319 89.7816 30.1645C90.0012 29.9971 90.2806 29.9017 90.5718 29.8947C90.7231 29.9018 90.87 29.9411 90.9999 30.0093C91.1298 30.0775 91.2387 30.1724 91.317 30.2858C91.4711 30.51 91.53 30.7746 91.4833 31.0329C91.3438 31.5281 91.0263 31.971 90.5775 32.2965C90.1548 32.6494 89.6523 32.921 89.1023 33.0937C88.5524 33.2664 87.9672 33.3365 87.3844 33.2994C86.7999 33.25 86.2378 33.0778 85.7457 32.7976C85.2536 32.5174 84.8462 32.1373 84.5581 31.6898C84.4089 31.4709 84.314 31.2269 84.2794 30.9739C84.2449 30.7208 84.2714 30.4642 84.3575 30.2206C84.4017 30.0948 84.4756 29.9785 84.5743 29.8792C84.6731 29.7799 84.7945 29.6998 84.9307 29.644C85.0669 29.5908 85.2144 29.5632 85.3636 29.5632C85.5127 29.5632 85.6602 29.5908 85.7964 29.644C86.0591 29.7524 86.2787 29.927 86.427 30.1454C86.5615 30.3604 86.6508 30.5948 86.6907 30.8374C86.7613 31.3087 86.7242 31.7876 86.5818 32.2464C86.3188 33.1188 85.6943 33.8745 84.8298 34.3666C83.9652 34.8587 82.9223 35.052 81.9039 34.909C81.4198 34.8739 80.9634 34.6973 80.6083 34.4075C80.4331 34.2582 80.3212 34.0612 80.291 33.8489C80.2608 33.6365 80.314 33.4215 80.442 33.2392C80.5907 33.0713 80.809 32.9614 81.0497 32.9333C81.2774 32.909 81.5085 32.9367 81.7204 33.0136C82.1158 33.1818 82.4378 33.4582 82.6376 33.8008C83.0389 34.4426 83.3657 35.0694 83.6982 35.6661C84.9938 38.0629 85.934 40.0435 86.5646 41.4174C86.8799 42.1044 87.1379 42.6409 87.2755 43.007C87.35 43.1824 87.4073 43.3228 87.4532 43.4231L87.5048 43.5635C87.4787 43.5197 87.4557 43.4745 87.436 43.4281C87.3901 43.3279 87.327 43.1925 87.241 43.017L86.5015 41.4375C85.848 40.0736 84.8906 38.098 83.5836 35.7112C83.2511 35.1196 82.9128 34.4878 82.5173 33.861C82.3343 33.5389 82.0337 33.2795 81.6631 33.1239C81.4812 33.0252 81.2629 32.9912 81.0533 33.0289C80.8436 33.0666 80.6584 33.1732 80.5358 33.3267C80.4131 33.4801 80.3624 33.6689 80.394 33.8541C80.4257 34.0393 80.5372 34.2068 80.7057 34.3223C81.0413 34.5902 81.4684 34.7541 81.9211 34.7886C82.8791 34.9129 83.8565 34.7352 84.6785 34.2872C85.5305 33.8096 86.1448 33.0682 86.3983 32.2113C86.5359 31.7723 86.571 31.3136 86.5015 30.8625C86.4847 30.6383 86.4027 30.4216 86.2632 30.2329C86.1237 30.0442 85.9315 29.8898 85.7047 29.7844C85.5925 29.7334 85.4686 29.705 85.3422 29.7016C85.2158 29.6981 85.0902 29.7196 84.9745 29.7643C84.8589 29.8091 84.7563 29.8761 84.6743 29.9603C84.5923 30.0445 84.533 30.1438 84.5008 30.2507C84.4234 30.4755 84.4002 30.712 84.4328 30.945C84.4654 31.1781 84.5529 31.4027 84.69 31.6046C84.9664 32.0273 85.3559 32.3851 85.8253 32.6471C86.2946 32.9091 86.8296 33.0676 87.3844 33.1088C87.9427 33.1428 88.5029 33.0743 89.0292 32.9076C89.5554 32.7409 90.0359 32.4798 90.4399 32.1411C90.8545 31.8328 91.1491 31.4192 91.2826 30.9577C91.3223 30.7341 91.2717 30.5054 91.1393 30.3109C91.0758 30.218 90.9871 30.1402 90.8812 30.0842C90.7752 30.0283 90.6552 29.9959 90.5317 29.99C90.2803 29.9912 90.0387 30.0753 89.8552 30.2256C89.6674 30.3763 89.5423 30.5775 89.4998 30.7973C89.4162 31.2423 89.4757 31.6989 89.6717 32.116C89.8454 32.5389 90.1175 32.9257 90.4707 33.2519C90.824 33.5782 91.2507 33.8368 91.7241 34.0114C92.616 34.3346 93.6182 34.3346 94.5102 34.0114C94.9272 33.8569 95.2641 33.5729 95.4561 33.2141C95.5384 33.0444 95.5439 32.8537 95.4716 32.6805C95.3992 32.5074 95.2543 32.3647 95.0663 32.2815C94.878 32.2029 94.6708 32.1651 94.4623 32.1712C94.2538 32.1773 94.05 32.2272 93.8681 32.3166C93.5061 32.5041 93.2074 32.7723 93.0025 33.0938C92.6048 33.6887 92.2672 34.3128 91.9935 34.9591C91.5192 36.0744 91.1735 37.2284 90.9616 38.4039C90.761 39.4368 90.652 40.3394 90.5718 41.0765C90.4915 41.8136 90.4457 42.3802 90.4113 42.7763L90.3654 43.2176C90.3637 43.2696 90.358 43.3216 90.3482 43.373Z" fill="#263238"/>
<path d="M93.9772 45.2084L83.4805 45.8C83.2715 45.811 83.0661 45.7491 82.9092 45.6279C82.7523 45.5066 82.6568 45.336 82.6435 45.1532C82.631 44.9704 82.7017 44.7908 82.8404 44.6535C82.979 44.5163 83.1741 44.4328 83.383 44.4211L93.874 43.8295C94.083 43.8171 94.2891 43.8777 94.447 43.998C94.605 44.1183 94.702 44.2885 94.7167 44.4713C94.7293 44.6546 94.6587 44.8348 94.5202 44.9728C94.3817 45.1109 94.1866 45.1955 93.9772 45.2084Z" fill="#263238"/>
<path d="M94.0169 45.8101L83.526 46.4018C83.3251 46.4229 83.1412 46.5106 83.0119 46.6468C82.8827 46.783 82.8181 46.9573 82.8313 47.1339C82.8445 47.3105 82.9346 47.476 83.083 47.5963C83.2314 47.7166 83.4269 47.7826 83.6292 47.7807L84.7758 47.7155L86.4956 50.1725C86.592 50.311 86.7303 50.4236 86.8951 50.4979C87.06 50.5722 87.2451 50.6053 87.43 50.5937L91.1792 50.3831C91.3655 50.3726 91.5448 50.3175 91.6975 50.2238C91.8502 50.13 91.9704 50.0012 92.0449 49.8515L93.3405 47.2291L94.1259 47.184C94.229 47.178 94.3298 47.1544 94.4225 47.1144C94.5152 47.0744 94.598 47.0188 94.6661 46.9509C94.7342 46.8829 94.7864 46.8038 94.8196 46.7182C94.8528 46.6326 94.8664 46.5421 94.8597 46.4519C94.8529 46.3617 94.8259 46.2735 94.7801 46.1924C94.7344 46.1114 94.6709 46.039 94.5931 45.9794C94.5154 45.9198 94.425 45.8741 94.3272 45.8451C94.2293 45.816 94.1258 45.8041 94.0227 45.8101H94.0169Z" fill="#263238"/>
<g opacity="0.2">
<path opacity="0.2" d="M77.9138 22.148C78.6865 21.4304 79.5891 20.829 80.5852 20.3679C81.2457 20.0532 81.957 19.8283 82.6949 19.701C83.2223 19.6208 83.5261 19.6509 83.5548 19.7461C83.6351 19.9617 82.6032 20.3529 81.2617 21.2504C79.4751 22.3832 78.1002 23.9428 77.302 25.7421C76.5038 27.5414 76.3161 29.5039 76.7615 31.3942C77.0653 32.8985 77.5297 33.771 77.3004 33.9013C77.2029 33.9515 76.9564 33.791 76.6296 33.3999C76.186 32.8697 75.8345 32.2851 75.5863 31.665C75.2159 30.7344 75.0222 29.7571 75.013 28.7718C74.9723 27.5609 75.1961 26.3543 75.6723 25.2167" fill="white"/>
</g>
<g opacity="0.2">
<path opacity="0.2" d="M86.9486 20.0819C86.0657 20.122 85.2689 19.9565 85.1485 19.5504C85.0969 19.3498 85.2402 19.1242 85.5498 18.9386C85.9373 18.7204 86.3848 18.5975 86.8454 18.5826C87.307 18.5505 87.7701 18.6266 88.1868 18.8033C88.5136 18.9537 88.6913 19.1643 88.6684 19.3699" fill="white"/>
</g>
<path d="M91.8616 50.0773C91.614 50.0391 91.369 49.9888 91.1278 49.9269C90.5387 49.8153 89.9336 49.7832 89.3334 49.8316C88.7408 49.882 88.1607 50.0123 87.6136 50.2177C87.1836 50.3731 86.9371 50.5085 86.9199 50.4885C87.1085 50.334 87.3256 50.2086 87.562 50.1174C88.1196 49.8797 88.7216 49.732 89.3391 49.6812C89.9572 49.629 90.581 49.6766 91.1794 49.8216C91.4216 49.8726 91.6523 49.9591 91.8616 50.0773Z" fill="#455A64"/>
<path d="M93.3636 47.2591C93.3636 47.3042 91.4718 47.4446 89.1329 47.575C86.7939 47.7054 84.8906 47.7806 84.8906 47.7405C84.8906 47.7004 86.7824 47.5549 89.1214 47.4246C91.4604 47.2942 93.3636 47.219 93.3636 47.2591Z" fill="#455A64"/>
<path d="M92.7905 48.3874C92.4542 48.464 92.1108 48.5144 91.7644 48.5378C91.128 48.608 90.2452 48.6883 89.2649 48.7585C88.2846 48.8287 87.4017 48.8638 86.7597 48.8838C86.4125 48.9098 86.0635 48.9098 85.7163 48.8838C86.0587 48.8272 86.4056 48.7937 86.7539 48.7835L89.2534 48.6181L91.7472 48.4426C92.0928 48.4004 92.4416 48.382 92.7905 48.3874Z" fill="#455A64"/>
<path d="M17.1982 109.812L19.4913 113.006C19.4913 113.006 29.237 105.179 38.8623 107.39C38.8566 107.375 30.1887 100.947 17.1982 109.812Z" fill="#E8505B"/>
<path d="M38.8569 107.375C38.8569 107.375 45.9942 100.596 56.4565 102.145L59.3229 102.521L58.4114 101.077C58.4114 101.077 40.1984 95.6265 38.8569 107.375Z" fill="#E8505B"/>
<path d="M23.7907 84.52C23.7907 84.52 9.49317 82.3689 0.120117 86.8065L15.0253 111.321C15.0253 111.321 27.2131 101.047 38.8735 107.375L23.7907 84.52Z" fill="#F5F5F5"/>
<path d="M23.7911 84.5201C23.8207 84.5506 23.8458 84.5843 23.8656 84.6204C23.9229 84.6956 23.9917 84.7959 24.0835 84.9263L24.9032 86.1447L28.0047 90.7879L38.9829 107.305C38.9995 107.33 39.0041 107.36 38.9955 107.388C38.9869 107.417 38.9659 107.441 38.937 107.455C38.9168 107.465 38.8941 107.47 38.8711 107.47C38.8481 107.47 38.8254 107.465 38.8052 107.455C37.1259 106.548 35.267 105.923 33.3246 105.615C32.3035 105.47 31.269 105.407 30.2347 105.43C29.1705 105.466 28.1119 105.582 27.0702 105.775C22.6636 106.722 18.5978 108.618 15.2436 111.291L15.1232 111.391C15.1103 111.403 15.0948 111.413 15.0775 111.42C15.0602 111.426 15.0416 111.429 15.0228 111.429C15.004 111.429 14.9854 111.426 14.9682 111.42C14.9509 111.413 14.9354 111.403 14.9225 111.391V111.361L0.000162669 86.8518C-0.00794721 86.8407 -0.0133565 86.8283 -0.0157256 86.8153C-0.0180947 86.8024 -0.0173724 86.7891 -0.013604 86.7764C-0.00983559 86.7637 -0.00310254 86.7518 0.00617234 86.7414C0.0154472 86.7311 0.0270636 86.7226 0.0402919 86.7164C3.0344 85.4099 6.26669 84.5716 9.59106 84.2393C12.1194 83.962 14.6693 83.8648 17.2156 83.9485C19.3253 84.0087 20.9763 84.1591 22.0885 84.2794C22.6617 84.3346 23.0745 84.3948 23.3611 84.4349L23.6822 84.485L23.7911 84.5101H23.6764L23.3554 84.475L22.0827 84.3496C20.9362 84.2494 19.3195 84.119 17.2156 84.0739C14.6756 84.015 12.1342 84.1273 9.61399 84.4098C6.327 84.7563 3.13293 85.596 0.172145 86.8919L0.22374 86.7465L15.1289 111.256L14.8996 111.226L15.0314 111.121C16.7696 109.762 18.6818 108.584 20.7298 107.611C22.6942 106.664 24.8018 105.965 26.99 105.535C28.0489 105.339 29.1247 105.222 30.206 105.184C31.2578 105.165 32.3094 105.231 33.3476 105.379C35.3274 105.708 37.2182 106.361 38.9198 107.305L38.7478 107.45C34.282 100.641 30.5385 94.9146 27.9072 90.9033L24.8574 86.22L24.0777 84.9564L23.8713 84.6304L23.7911 84.5201Z" fill="#263238"/>
<path d="M46.2635 79.4858C46.2635 79.4858 35.4516 73.4687 23.9746 84.5001L39.0403 107.375C39.0403 107.375 42.113 98.0987 60.1024 101.328L46.2635 79.4858Z" fill="#F5F5F5"/>
<path d="M46.2637 79.4859C46.2908 79.5162 46.3157 79.548 46.3382 79.5811L46.5331 79.877L47.2899 81.0403L50.1562 85.4729L60.1943 101.288C60.2053 101.306 60.2102 101.326 60.2086 101.347C60.207 101.367 60.1989 101.387 60.1852 101.404C60.1715 101.42 60.1528 101.433 60.1311 101.441C60.1094 101.449 60.0856 101.452 60.0624 101.448L57.3852 101.062C56.928 100.994 56.4667 100.949 56.0036 100.927L54.5877 100.831C54.1114 100.791 53.6324 100.781 53.1545 100.801H51.6983C51.2053 100.801 50.718 100.887 50.225 100.927C49.7275 100.962 49.2333 101.027 48.746 101.122L47.2669 101.418L45.8223 101.859C45.3407 102.005 44.8936 102.24 44.4235 102.426C44.1858 102.52 43.9592 102.634 43.747 102.767L43.0878 103.133C42.6521 103.389 42.2622 103.7 41.8552 103.99C41.4707 104.306 41.107 104.641 40.766 104.993C40.077 105.708 39.5358 106.523 39.1666 107.4C39.1547 107.431 39.1295 107.457 39.0963 107.472C39.0631 107.487 39.0246 107.49 38.9888 107.48C38.9555 107.471 38.9271 107.451 38.9086 107.425L38.3353 106.503L23.8716 84.5703C23.8567 84.5529 23.8486 84.5318 23.8486 84.5101C23.8486 84.4884 23.8567 84.4673 23.8716 84.45C26.1489 82.1905 28.931 80.3629 32.0465 79.0797C34.4572 78.1171 37.0999 77.6834 39.7456 77.8161C41.4362 77.9031 43.0993 78.2299 44.67 78.7839C45.0825 78.9295 45.4846 79.097 45.8739 79.2853L46.172 79.4357L46.2637 79.4909C46.2637 79.4909 46.2236 79.4909 46.1605 79.4457C46.0974 79.4006 45.9828 79.3705 45.8567 79.3104C45.5872 79.195 45.1859 79.0296 44.6413 78.849C43.0729 78.3217 41.4182 78.017 39.7398 77.9465C37.1135 77.8238 34.4926 78.2627 32.1038 79.2251C29.0423 80.5219 26.3123 82.3469 24.0779 84.5904V84.465L38.5589 106.392L39.1322 107.315H38.8742C39.2518 106.4 39.8128 105.551 40.5309 104.808C40.8879 104.451 41.2689 104.112 41.6718 103.795C42.0903 103.499 42.4915 103.183 42.9387 102.922L43.6094 102.546C43.8274 102.412 44.0597 102.296 44.3031 102.2C44.7673 101.987 45.2437 101.794 45.7306 101.624L47.2039 101.172L48.7288 100.887C49.2219 100.792 49.7218 100.726 50.225 100.691C50.7295 100.651 51.2225 100.576 51.7155 100.566H53.1889C53.6727 100.55 54.1572 100.561 54.6392 100.601L56.061 100.701C56.5282 100.722 56.9935 100.769 57.454 100.842L60.1484 101.233L60.0108 101.393L50.0244 85.5581C48.832 83.6427 47.8861 82.1334 47.2325 81.0904L46.5045 79.902C46.43 79.7717 46.3669 79.6714 46.321 79.5962C46.2987 79.5608 46.2795 79.5239 46.2637 79.4859Z" fill="#263238"/>
<path d="M4.14502 75.0181L20.2655 102.17C20.2655 102.17 33.3706 101.669 38.9199 107.255L23.9746 84.5201C23.9746 84.5201 15.215 75.0181 4.14502 75.0181Z" fill="#F5F5F5"/>
<path d="M4.14502 75.0181H4.55204L5.79605 75.0632C5.93364 75.0632 6.08269 75.0632 6.23174 75.0883L6.70183 75.1535L7.77958 75.3089C8.1979 75.3742 8.61139 75.4613 9.01786 75.5697C9.44782 75.685 9.92363 75.7602 10.3995 75.9257C14.2519 77.0489 19.4171 79.7666 24.0663 84.4499L39.0288 107.174C39.0476 107.203 39.0527 107.237 39.0431 107.269C39.0334 107.301 39.0098 107.328 38.9772 107.345C38.9518 107.36 38.9218 107.368 38.8912 107.368C38.8606 107.368 38.8307 107.36 38.8052 107.345L38.1746 106.803C36.9781 105.795 35.5812 104.986 34.0528 104.417C32.5791 103.841 31.0425 103.397 29.4666 103.093C26.4563 102.509 23.3769 102.243 20.2942 102.301C20.2696 102.302 20.2451 102.297 20.2237 102.286C20.2023 102.276 20.1849 102.26 20.1738 102.24L8.59937 82.6147L5.2973 77.0088L4.43166 75.5045L4.21381 75.1234C4.18498 75.0843 4.16187 75.0422 4.14502 74.998C4.17926 75.0403 4.2081 75.0857 4.23101 75.1334L4.47179 75.5245C4.6839 75.8705 4.982 76.377 5.37756 77.0288C6.16295 78.3425 7.3095 80.2429 8.74269 82.6398C11.6091 87.4284 15.6564 94.1725 20.3859 102.1L20.2598 102.04C23.3652 101.976 26.4681 102.24 29.501 102.827C31.1048 103.13 32.6685 103.577 34.1674 104.161C35.7283 104.74 37.1546 105.564 38.3753 106.593C38.5989 106.788 38.8224 106.979 39.0231 107.159L38.7938 107.3L23.8886 84.5552C21.8148 82.442 19.4436 80.5668 16.8316 78.9743C14.836 77.7395 12.6589 76.7461 10.3593 76.0209C9.88924 75.8555 9.41915 75.7753 8.9892 75.6549C8.58963 75.5406 8.18167 75.4502 7.76812 75.3841L6.69609 75.2137L6.22601 75.1384L5.80752 75.1084L4.14502 75.0181Z" fill="#263238"/>
<path d="M54.4613 152.027L54.8052 152.528C55.1942 153.091 55.7591 153.545 56.4333 153.837L57.0353 154.098L56.462 154.404C55.814 154.741 55.2922 155.236 54.96 155.828L54.6619 156.354L54.3179 155.853C53.9275 155.291 53.363 154.837 52.6898 154.544L52.0879 154.283L52.6612 153.977C53.3079 153.639 53.8294 153.144 54.1632 152.553L54.4613 152.027Z" fill="#E8505B"/>
<path d="M22.6846 48.603L23.0343 49.1045C23.4183 49.6687 23.9794 50.1247 24.651 50.4182L25.2242 50.6789L24.651 50.9798C24.004 51.3181 23.4825 51.8126 23.149 52.4038L22.8509 52.9052L22.5012 52.4038C22.1157 51.8371 21.55 51.3806 20.8731 51.0901L20.2998 50.8294L20.8731 50.5285C21.5164 50.1987 22.0408 49.7174 22.3865 49.1396L22.6846 48.603Z" fill="#E8505B"/>
<path d="M169.781 66.4436L170.125 66.945C170.516 67.5071 171.08 67.9608 171.753 68.2537L172.327 68.5145L171.753 68.8204C171.111 69.1631 170.594 69.6588 170.263 70.2494L169.965 70.7759L169.621 70.2745C169.234 69.7086 168.669 69.2525 167.993 68.9608L167.396 68.695L167.97 68.3941C168.617 68.0538 169.138 67.5577 169.472 66.9651L169.781 66.4436Z" fill="#E8505B"/>
<path d="M152.411 158.525L152.755 159.027C153.146 159.59 153.71 160.045 154.383 160.341L154.985 160.601L154.412 160.902C153.766 161.242 153.245 161.736 152.91 162.326L152.612 162.828L152.268 162.326C151.881 161.76 151.316 161.304 150.64 161.012L150.066 160.752L150.64 160.451C151.285 160.111 151.806 159.617 152.142 159.027L152.411 158.525Z" fill="#E8505B"/>
<path d="M155.719 177.875L155.885 177.93C156.067 177.995 156.266 178.013 156.458 177.981L156.63 177.95L156.567 178.096C156.494 178.255 156.475 178.429 156.51 178.597L156.544 178.748L156.378 178.693C156.196 178.629 155.997 178.611 155.805 178.642L155.633 178.668L155.696 178.527C155.769 178.368 155.789 178.194 155.753 178.026L155.719 177.875Z" fill="#E8505B"/>
<path d="M165.717 47.0334L165.883 47.0936C166.065 47.1573 166.264 47.1747 166.457 47.1438L166.629 47.1137L166.56 47.2591C166.489 47.4186 166.469 47.5919 166.502 47.7605L166.537 47.916L166.371 47.8558C166.188 47.7936 165.99 47.7763 165.797 47.8056L165.62 47.8357L165.688 47.6903C165.762 47.5315 165.782 47.3574 165.746 47.1889L165.717 47.0334Z" fill="#E8505B"/>
<path d="M29.1513 35.0996L29.3175 35.1598C29.4998 35.2219 29.6981 35.2393 29.8908 35.2099L30.0685 35.1798L29.9997 35.3253C29.926 35.4841 29.9061 35.6582 29.9424 35.8267L29.9768 35.9821L29.8106 35.922C29.6282 35.86 29.43 35.8427 29.2373 35.8718L29.0596 35.9019L29.1284 35.7565C29.1991 35.597 29.219 35.4236 29.1857 35.2551L29.1513 35.0996Z" fill="#E8505B"/>
<path d="M46.0053 136.964L46.1716 137.024C46.3538 137.086 46.5521 137.104 46.7448 137.074L46.9225 137.044L46.8538 137.19C46.7827 137.349 46.7629 137.522 46.7964 137.691L46.8308 137.846L46.6646 137.786C46.4823 137.724 46.284 137.707 46.0913 137.736L45.9136 137.766L45.9824 137.621C46.0534 137.461 46.0733 137.288 46.0397 137.119L46.0053 136.964Z" fill="#E8505B"/>
<path d="M64.2759 176.341C64.2289 176.393 64.1772 176.442 64.1211 176.486L63.6453 176.902L61.7936 178.507L54.9143 184.303V184.243C55.2411 190.536 55.6825 199.085 56.1813 208.597V208.813L55.9749 208.693L53.4926 207.244L37.8021 198.002V197.972L32.0349 183.02C31.347 181.205 30.8081 179.766 30.4297 178.773L30.0112 177.65C29.9711 177.524 29.9367 177.429 29.9138 177.359L29.8794 177.258C29.8794 177.258 29.8794 177.289 29.931 177.354C29.9826 177.419 29.9998 177.519 30.0456 177.64C30.1546 177.9 30.3036 178.276 30.4985 178.753L32.161 182.98C33.5828 186.625 35.6007 191.79 37.974 197.912L37.9282 197.862L53.676 207.053L56.1583 208.507L55.9634 208.602C55.4991 199.075 55.0806 190.551 54.771 184.243V184.208L61.6962 178.457L63.5822 176.912L64.0753 176.511L64.2759 176.341Z" fill="#E8505B"/>
<path d="M56.9549 205.709L56.9033 207.128L58.2103 207.971L56.651 208.367L56.1408 209.716L55.2293 208.537L53.6069 208.532L54.5987 207.409L54.1057 206.055L55.6363 206.537L56.9549 205.709Z" fill="#E8505B"/>
<path d="M38.0024 196.072L38.0311 196.995L38.9139 197.491L37.9279 197.802L37.6584 198.689L37.0164 197.962L35.9673 198.013L36.5578 197.255L36.1794 196.398L37.1884 196.654L38.0024 196.072Z" fill="#E8505B"/>
<path d="M29.839 175.553L30.6301 176.441L31.92 176.376L31.1976 177.308L31.6677 178.361L30.4237 178.046L29.4262 178.763L29.3861 177.634L28.2969 177.028L29.5122 176.642L29.839 175.553Z" fill="#E8505B"/>
<path d="M63.4846 174.661L64.2757 175.554L65.5656 175.483L64.8433 176.421L65.3134 177.469L64.0751 177.158L63.0776 177.875L63.0317 176.747L61.9482 176.135L63.1579 175.754L63.4846 174.661Z" fill="#E8505B"/>
<path d="M54.6507 183.26L55.1609 183.827L55.9807 183.782L55.5164 184.379L55.8202 185.051L55.0291 184.85L54.3927 185.306L54.3641 184.589L53.6704 184.203L54.4443 183.957L54.6507 183.26Z" fill="#E8505B"/>
<path d="M24.3129 145.333C30.6262 145.333 35.7441 140.856 35.7441 135.334C35.7441 129.812 30.6262 125.336 24.3129 125.336C17.9997 125.336 12.8818 129.812 12.8818 135.334C12.8818 140.856 17.9997 145.333 24.3129 145.333Z" fill="#E8505B"/>
<g opacity="0.3">
<path opacity="0.3" d="M22.8281 138.458C22.8292 138.782 22.7206 139.098 22.5159 139.368C22.3112 139.637 22.0198 139.848 21.6784 139.972C21.337 140.096 20.961 140.13 20.5981 140.067C20.2352 140.005 19.9017 139.849 19.6397 139.621C19.3778 139.392 19.1992 139.101 19.1267 138.784C19.0541 138.467 19.0908 138.138 19.232 137.839C19.3733 137.54 19.6129 137.284 19.9203 137.104C20.2278 136.925 20.5893 136.829 20.9592 136.829C21.4539 136.829 21.9284 137 22.2787 137.306C22.629 137.611 22.8266 138.026 22.8281 138.458Z" fill="white"/>
</g>
<g opacity="0.3">
<path opacity="0.3" d="M20.1797 133.75C20.1797 133.937 20.1161 134.121 19.9971 134.276C19.878 134.432 19.7088 134.554 19.5108 134.626C19.3128 134.697 19.095 134.716 18.8848 134.679C18.6746 134.643 18.4816 134.553 18.33 134.42C18.1785 134.288 18.0753 134.119 18.0335 133.935C17.9917 133.751 18.0132 133.56 18.0952 133.387C18.1772 133.214 18.3161 133.066 18.4942 132.962C18.6724 132.858 18.8819 132.802 19.0962 132.802C19.2387 132.802 19.3799 132.826 19.5117 132.873C19.6435 132.92 19.7633 132.99 19.864 133.078C19.9648 133.166 20.0446 133.271 20.0988 133.387C20.1529 133.502 20.1804 133.625 20.1797 133.75Z" fill="white"/>
</g>
<path d="M13.2199 137.766C13.2715 137.942 3.43414 146.195 5.96802 147.955C8.50189 149.715 19.1533 145.202 28.2684 138.779C37.3835 132.356 45.6673 124.554 43.3914 122.488C41.1155 120.422 29.7532 126.539 29.7532 126.539L31.1119 127.297C31.1119 127.297 37.9912 123.441 40.1581 124.935C42.3251 126.429 36.1452 132.281 27.3913 137.862C18.6374 143.442 10.1931 147.364 8.88599 145.834C7.57892 144.305 13.7588 139.2 13.7588 139.2L13.2199 137.766Z" fill="#E8505B"/>
<g opacity="0.3">
<path opacity="0.3" d="M13.2199 137.766C13.2715 137.942 3.43414 146.195 5.96802 147.955C8.50189 149.715 19.1533 145.202 28.2684 138.779C37.3835 132.356 45.6673 124.554 43.3914 122.488C41.1155 120.422 29.7532 126.539 29.7532 126.539L31.1119 127.297C31.1119 127.297 37.9912 123.441 40.1581 124.935C42.3251 126.429 36.1452 132.281 27.3913 137.862C18.6374 143.442 10.1931 147.364 8.88599 145.834C7.57892 144.305 13.7588 139.2 13.7588 139.2L13.2199 137.766Z" fill="black"/>
</g>
<g opacity="0.3">
<path opacity="0.3" d="M18.0124 128.29C18.1042 128.39 17.3302 128.961 16.4531 130.12C15.2895 131.602 14.6476 133.349 14.6069 135.147C14.5661 136.944 15.1283 138.712 16.2238 140.233C17.0436 141.417 17.7946 142.019 17.6971 142.114C17.5997 142.209 16.7226 141.718 15.7021 140.539C15.1188 139.844 14.657 139.077 14.332 138.263C13.9295 137.256 13.7353 136.195 13.7587 135.129C13.7892 134.062 14.0397 133.009 14.4982 132.02C14.8639 131.217 15.3665 130.466 15.9888 129.794C17.0149 128.651 17.9551 128.219 18.0124 128.29Z" fill="white"/>
</g>
<path d="M156.823 47.6193C160.583 44.4674 160.71 39.2459 157.107 35.9569C153.503 32.6678 147.533 32.5566 143.773 35.7085C140.013 38.8604 139.886 44.0818 143.489 47.3709C147.093 50.66 153.062 50.7712 156.823 47.6193Z" fill="#E8505B"/>
<g opacity="0.4">
<path opacity="0.4" d="M153.38 38.5043C153.388 38.2387 153.486 37.9811 153.661 37.7641C153.837 37.5471 154.082 37.3805 154.365 37.2853C154.649 37.19 154.959 37.1705 155.255 37.2292C155.551 37.2878 155.821 37.422 156.03 37.6148C156.239 37.8075 156.378 38.0502 156.43 38.3121C156.481 38.574 156.443 38.8434 156.319 39.0861C156.196 39.3289 155.993 39.5343 155.736 39.6761C155.479 39.818 155.18 39.8901 154.876 39.8832C154.674 39.8787 154.476 39.8394 154.291 39.7676C154.107 39.6959 153.94 39.593 153.801 39.4649C153.662 39.3369 153.554 39.1861 153.481 39.0213C153.409 38.8565 153.375 38.6808 153.38 38.5043Z" fill="black"/>
</g>
<g opacity="0.4">
<path opacity="0.4" d="M156.453 41.6481C156.456 41.4935 156.512 41.3432 156.613 41.2162C156.714 41.0893 156.856 40.9914 157.021 40.935C157.185 40.8786 157.366 40.8661 157.538 40.8992C157.711 40.9323 157.869 41.0095 157.991 41.1209C158.114 41.2324 158.196 41.3732 158.227 41.5255C158.258 41.6777 158.237 41.8347 158.166 41.9764C158.096 42.1182 157.978 42.2384 157.83 42.3219C157.681 42.4054 157.507 42.4484 157.33 42.4454C157.212 42.4435 157.097 42.4213 156.989 42.3802C156.881 42.339 156.784 42.2797 156.703 42.2057C156.621 42.1317 156.557 42.0443 156.514 41.9487C156.471 41.853 156.451 41.7509 156.453 41.6481Z" fill="black"/>
</g>
<g opacity="0.4">
<path opacity="0.4" d="M155.254 44.0502C155.32 44.0513 155.385 44.0694 155.439 44.1025C155.493 44.1355 155.534 44.1818 155.558 44.2356C155.582 44.2894 155.587 44.3482 155.573 44.4046C155.559 44.4609 155.525 44.5122 155.477 44.5519C155.43 44.5917 155.369 44.6181 155.304 44.6277C155.239 44.6374 155.172 44.6299 155.112 44.6062C155.052 44.5825 155.001 44.5437 154.966 44.4947C154.931 44.4457 154.914 44.3887 154.916 44.331C154.917 44.2931 154.926 44.2556 154.944 44.2208C154.961 44.1861 154.986 44.1547 155.018 44.1286C155.049 44.1024 155.087 44.082 155.127 44.0686C155.168 44.0551 155.211 44.0489 155.254 44.0502Z" fill="black"/>
</g>
</g>
<defs>
<clipPath id="clip0">
<rect width="204" height="220" fill="white"/>
</clipPath>
</defs>
</svg>
